<?xml version="1.0" encoding="UTF-8" standalone="no"?>
<svg
   width="180"
   height="180"
   version="1.1"
   id="svg14"
   sodipodi:docname="apple-touch-icon.svg"
   inkscape:version="1.1 (c68e22c387, 2021-05-23)"
   inkscape:export-filename="/var/home/jimmac/src/git/gnome/pipewire-org/apple-touch-icon.png"
   inkscape:export-xdpi="96"
   inkscape:export-ydpi="96"
   xmlns:inkscape="http://www.inkscape.org/namespaces/inkscape"
   xmlns:sodipodi="http://sodipodi.sourceforge.net/DTD/sodipodi-0.dtd"
   xmlns="http://www.w3.org/2000/svg"
   xmlns:svg="http://www.w3.org/2000/svg"
   xmlns:rdf="http://www.w3.org/1999/02/22-rdf-syntax-ns#"
   xmlns:cc="http://creativecommons.org/ns#"
   xmlns:dc="http://purl.org/dc/elements/1.1/">
  <metadata
     id="metadata20">
    <rdf:RDF>
      <cc:Work
         rdf:about="">
        <dc:format>image/svg+xml</dc:format>
        <dc:type
           rdf:resource="http://purl.org/dc/dcmitype/StillImage" />
        <dc:title />
      </cc:Work>
    </rdf:RDF>
  </metadata>
  <defs
     id="defs18" />
  <sodipodi:namedview
     pagecolor="#ffffff"
     bordercolor="#666666"
     borderopacity="1"
     objecttolerance="10"
     gridtolerance="10"
     guidetolerance="10"
     inkscape:pageopacity="0"
     inkscape:pageshadow="2"
     inkscape:window-width="1920"
     inkscape:window-height="1016"
     id="namedview16"
     showgrid="true"
     inkscape:zoom="1.0603119"
     inkscape:cx="142.64289"
     inkscape:cy="33.052005"
     inkscape:window-x="0"
     inkscape:window-y="0"
     inkscape:window-maximized="1"
     inkscape:current-layer="svg14"
     inkscape:document-rotation="0"
     inkscape:snap-object-midpoints="true"
     inkscape:pagecheckerboard="1">
    <inkscape:grid
       type="xygrid"
       id="grid52"
       originx="-0.0087961219"
       originy="-0.0049772212" />
  </sodipodi:namedview>
  <rect
     y="1.219757e-09"
     x="1.8816066e-09"
     height="180"
     width="180"
     fill="#201a26"
     stroke-width="0.08889"
     id="rect2"
     style="font-variation-settings:normal;vector-effect:none;fill:#99c1f1;fill-opacity:1;stroke-width:1.00001;stroke-linecap:butt;stroke-linejoin:miter;stroke-miterlimit:4;stroke-dasharray:none;stroke-dashoffset:0;stroke-opacity:1;-inkscape-stroke:none;stop-color:#000000"
     rx="22" />
  <rect
     style="fill:#3295ca;fill-opacity:1;stroke-linecap:round;stroke-linejoin:round"
     id="rect942"
     width="15.3125"
     height="0.6640625"
     x="249.68359"
     y="165.78516"
     rx="33.75"
     ry="0.6640625" />
  <g
     id="g905"
     transform="matrix(8.1433736e-4,0,0,8.1433736e-4,89.573823,104.98007)"
     style="fill:#1a5fb4">
    <path
       inkscape:connector-curvature="0"
       inkscape:label="#path847"
       id="pwlogo"
       d="m -48643.062,-46768.757 c -2253.211,0 -4416.886,896.109 -6010.147,2489.369 -1593.261,1593.261 -2489.367,3756.934 -2489.367,6010.146 0,2253.213 896.106,4416.886 2489.367,6010.146 455.029,455.028 960.45,845.756 1497.315,1182.43 v 62202.843 c -536.865,336.68 -1042.286,727.4 -1497.315,1182.43 -1593.261,1593.27 -2489.367,3756.94 -2489.367,6010.15 0,2253.21 896.106,4416.89 2489.367,6010.14 1593.261,1593.26 3756.936,2489.37 6010.147,2489.37 2253.211,0 4416.886,-896.11 6010.146,-2489.37 1593.261,-1593.25 2489.366,-3756.93 2489.366,-6010.14 0,-2253.21 -896.105,-4416.88 -2489.366,-6010.15 -674.305,-674.3 -1455.214,-1214.74 -2297.384,-1624.23 V 14192.22 L -15595.291,-2744.1518 V -28449.938 l -6974.885,-6974.889 c 322.287,-906.041 501.247,-1865.022 501.247,-2844.415 0,-2253.212 -896.104,-4416.885 -2489.369,-6010.146 -1593.261,-1593.26 -3756.933,-2489.369 -6010.146,-2489.369 -2253.208,0 -4416.885,896.109 -6010.146,2489.369 -1593.261,1593.261 -2489.365,3756.934 -2489.365,6010.146 0,2253.213 896.104,4416.886 2489.365,6010.146 1593.261,1593.261 3756.938,2489.366 6010.146,2489.366 616.344,0 1224.738,-73.192 1817.828,-203.23 l 4929.73,4929.735 V -7493.1458 L -44930.3,4694.2292 V -30634.861 c 842.17,-409.491 1623.079,-949.929 2297.384,-1624.235 1593.261,-1593.26 2489.366,-3756.933 2489.366,-6010.146 0,-2253.212 -896.105,-4416.885 -2489.366,-6010.146 -1593.26,-1593.26 -3756.935,-2489.369 -6010.146,-2489.369 z m 43891.2601,0 c -2253.212,0 -4416.885,896.109 -6010.1461,2489.369 -1593.261,1593.261 -2489.369,3756.934 -2489.369,6010.146 0,2253.213 896.108,4416.886 2489.369,6010.146 811.1511,811.151 1771.3331,1438.493 2814.6961,1862.004 V 15148.93 L 18594.75,-175.25784 V 14136.79 L 53884.48,-5951.6528 V -30886.289 c 657.64,-373.491 1271.55,-828.943 1815.41,-1372.807 1593.26,-1593.26 2489.37,-3756.933 2489.37,-6010.146 0,-2253.212 -896.11,-4416.885 -2489.37,-6010.146 -1593.27,-1593.26 -3756.94,-2489.369 -6010.15,-2489.369 -2253.21,0 -4416.89,896.109 -6010.14,2489.369 -1593.27,1593.261 -2489.37,3756.934 -2489.37,6010.146 0,2253.213 896.1,4416.886 2489.37,6010.146 589.35,589.352 1258.19,1081.489 1979.28,1470.005 v 20054.707 L 26820.34,-9.7828422 V -31018.026 c 573.62,-349.065 1112.92,-758.675 1595.32,-1241.07 1593.25,-1593.26 2489.36,-3756.933 2489.36,-6010.146 0,-2253.212 -896.11,-4416.885 -2489.36,-6010.146 -1593.27,-1593.26 -3756.94,-2489.369 -6010.15,-2489.369 -2253.22,0 -4416.088,896.109 -6009.338,2489.369 -1593.263,1593.261 -2490.174,3756.934 -2490.174,6010.146 0,2253.213 896.911,4416.886 2490.174,6010.146 648.23,648.235 1393.9,1173.604 2198.578,1577.645 V -9674.0548 L 278.34317,901.13616 V -31419.665 c 345.23198,-253.464 673.54398,-532.974 980.00093,-839.431 1593.261,-1593.26 2489.365,-3756.933 2489.365,-6010.146 0,-2253.212 -896.104,-4416.885 -2489.365,-6010.146 -1593.26094,-1593.26 -3756.937,-2489.369 -6010.146,-2489.369 z m -43891.2601,5140.997 c 891.709,0 1743.965,352.685 2374.498,983.218 630.533,630.533 984.017,1483.593 984.017,2375.3 0,891.708 -353.484,1743.962 -984.017,2374.499 -630.533,630.533 -1482.789,984.016 -2374.498,984.016 -891.709,0 -1743.964,-353.483 -2374.498,-984.016 -630.533,-630.537 -984.019,-1482.791 -984.019,-2374.499 0,-891.707 353.486,-1744.767 984.019,-2375.3 630.534,-630.533 1482.789,-983.218 2374.498,-983.218 z m 18074.618,0 c 891.712,0 1743.966,352.685 2374.499,983.218 630.533,630.533 984.02,1483.593 984.02,2375.3 0,891.708 -353.487,1743.962 -984.02,2374.499 -630.533,630.533 -1482.787,984.016 -2374.499,984.016 -891.708,0 -1743.962,-353.483 -2374.495,-984.016 -630.533,-630.537 -984.019,-1482.791 -984.019,-2374.499 0,-891.707 353.486,-1744.767 984.019,-2375.3 630.533,-630.533 1482.787,-983.218 2374.495,-983.218 z m 25816.6421,0 c 891.708,0 1743.962,352.685 2374.499,983.218 630.533,630.533 984.0161,1483.593 984.0161,2375.3 0,891.708 -353.4831,1743.962 -984.0161,2374.499 -630.537,630.533 -1482.791,984.016 -2374.499,984.016 -891.712,0 -1743.966,-353.483 -2374.499,-984.016 -630.533,-630.537 -984.019,-1482.791 -984.019,-2374.499 0,-891.707 353.486,-1744.767 984.019,-2375.3 630.533,-630.533 1482.787,-983.218 2374.499,-983.218 z m 27157.3119,0 c 891.71,0 1744.77,352.685 2375.3,983.218 630.54,630.533 983.22,1483.593 983.22,2375.3 0,891.708 -352.68,1743.962 -983.22,2374.499 -630.53,630.533 -1483.59,984.016 -2375.3,984.016 -891.71,0 -1743.96,-353.483 -2374.5,-984.016 -630.53,-630.537 -984.02,-1482.791 -984.02,-2374.499 0,-891.707 353.49,-1744.767 984.02,-2375.3 630.54,-630.533 1482.79,-983.218 2374.5,-983.218 z m 27284.23,0 c 891.71,0 1744.77,352.685 2375.3,983.218 630.54,630.533 983.22,1483.593 983.22,2375.3 0,891.708 -352.68,1743.962 -983.22,2374.499 -630.53,630.533 -1483.59,984.016 -2375.3,984.016 -891.7,0 -1743.96,-353.483 -2374.5,-984.016 -630.53,-630.537 -984.01,-1482.791 -984.01,-2374.499 0,-891.707 353.48,-1744.767 984.01,-2375.3 630.54,-630.533 1482.8,-983.218 2374.5,-983.218 z m -98332.802,76587.997 c 891.709,0 1743.965,353.49 2374.498,984.02 630.533,630.53 984.017,1482.79 984.017,2374.5 0,891.7 -353.484,1743.96 -984.017,2374.5 -630.533,630.53 -1482.789,984.01 -2374.498,984.01 -891.709,0 -1743.964,-353.48 -2374.498,-984.01 -630.533,-630.54 -984.019,-1482.8 -984.019,-2374.5 0,-891.71 353.486,-1743.97 984.019,-2374.5 630.534,-630.53 1482.789,-984.02 2374.498,-984.02 z"
       style="color:#000000;font-style:normal;font-variant:normal;font-weight:normal;font-stretch:normal;font-size:medium;line-height:normal;font-family:sans-serif;font-variant-ligatures:normal;font-variant-position:normal;font-variant-caps:normal;font-variant-numeric:normal;font-variant-alternates:normal;font-variant-east-asian:normal;font-feature-settings:normal;text-indent:0;text-align:start;text-decoration:none;text-decoration-line:none;text-decoration-style:solid;text-decoration-color:#000000;letter-spacing:normal;word-spacing:normal;text-transform:none;writing-mode:lr-tb;direction:ltr;text-orientation:mixed;dominant-baseline:auto;baseline-shift:baseline;text-anchor:start;white-space:normal;shape-padding:0;clip-rule:nonzero;display:inline;overflow:visible;visibility:visible;opacity:1;isolation:auto;mix-blend-mode:normal;color-interpolation:sRGB;color-interpolation-filters:linearRGB;solid-color:#000000;solid-opacity:1;vector-effect:none;fill:#1a5fb4;fill-opacity:1;fill-rule:nonzero;stroke:none;stroke-width:5141;stroke-linecap:butt;stroke-linejoin:miter;stroke-miterlimit:4;stroke-dasharray:none;stroke-dashoffset:0;stroke-opacity:1;color-rendering:auto;image-rendering:auto;shape-rendering:auto;text-rendering:auto;enable-background:accumulate" />
  </g>
</svg>
