<?xml version="1.0" encoding="UTF-8" standalone="no"?>
<svg
   width="136"
   height="26"
   version="1.1"
   id="svg10"
   sodipodi:docname="page-logo.svg"
   inkscape:version="1.1 (c68e22c387, 2021-05-23)"
   xmlns:inkscape="http://www.inkscape.org/namespaces/inkscape"
   xmlns:sodipodi="http://sodipodi.sourceforge.net/DTD/sodipodi-0.dtd"
   xmlns="http://www.w3.org/2000/svg"
   xmlns:svg="http://www.w3.org/2000/svg">
  <defs
     id="defs14" />
  <sodipodi:namedview
     id="namedview12"
     pagecolor="#505050"
     bordercolor="#ffffff"
     borderopacity="1"
     inkscape:pageshadow="0"
     inkscape:pageopacity="0"
     inkscape:pagecheckerboard="1"
     showgrid="true"
     width="149px"
     inkscape:current-layer="svg10">
    <inkscape:grid
       type="xygrid"
       id="grid5602" />
  </sodipodi:namedview>
  <g
     aria-label="pipewire"
     id="text2501"
     style="font-weight:bold;font-size:22.8928px;line-height:1.25;font-family:Heebo;-inkscape-font-specification:'Heebo, Bold';text-align:center;letter-spacing:0px;word-spacing:0px;text-anchor:middle;fill:#201a26;stroke-width:0.27736">
    <path
       d="M 49.135195,25.92604 H 45.759402 V 9.181209 h 3.129875 l 0.245918,2.32505 z M 56.73632,15.329178 q 0,1.754965 -0.547728,3.152231 -0.53655,1.397265 -1.587294,2.213268 -1.039565,0.804825 -2.570968,0.804825 -1.486691,0 -2.44801,-0.804825 -0.95014,-0.816003 -1.475512,-2.190912 -0.525372,-1.374909 -0.760113,-3.04045 v -0.346522 q 0.223563,-1.777322 0.748935,-3.163409 0.53655,-1.397266 1.48669,-2.1909125 0.961319,-0.804825 2.436832,-0.804825 1.531403,0 2.582146,0.7712906 1.050744,0.7601129 1.587294,2.1461999 0.547728,1.374909 0.547728,3.2193 z m -3.375793,-0.234741 q 0,-0.983675 -0.223563,-1.743787 -0.212384,-0.771291 -0.704222,-1.207238 -0.491837,-0.447125 -1.30784,-0.447125 -0.625975,0 -1.0731,0.201206 -0.435947,0.190028 -0.726578,0.570085 -0.279454,0.380056 -0.424769,0.938962 -0.134138,0.547728 -0.156494,1.274306 v 1.229594 q 0.04471,0.827181 0.279453,1.475513 0.245919,0.648331 0.760113,1.028387 0.514193,0.368878 1.363731,0.368878 0.827181,0 1.30784,-0.469481 0.48066,-0.469481 0.693044,-1.25195 0.212385,-0.793647 0.212385,-1.732609 z"
       id="path15" />
    <path
       d="M 62.202424,21.27594 H 58.815452 V 9.181209 h 3.386972 z M 58.614246,6.0625122 q 0,-0.7601124 0.514193,-1.2407718 0.514194,-0.4918375 1.37491,-0.4918375 0.860715,0 1.363731,0.4918375 0.514194,0.4806594 0.514194,1.2407718 0,0.7489344 -0.514194,1.2407719 -0.503016,0.4918375 -1.363731,0.4918375 -0.860716,0 -1.37491,-0.4918375 -0.514193,-0.4918375 -0.514193,-1.2407719 z"
       id="path17" />
    <path
       d="M 68.160365,25.92604 H 64.784571 V 9.181209 h 3.129875 l 0.245919,2.32505 z M 75.76149,15.329178 q 0,1.754965 -0.547729,3.152231 -0.53655,1.397265 -1.587293,2.213268 -1.039566,0.804825 -2.570969,0.804825 -1.48669,0 -2.448009,-0.804825 -0.950141,-0.816003 -1.475513,-2.190912 -0.525372,-1.374909 -0.760112,-3.04045 v -0.346522 q 0.223562,-1.777322 0.748934,-3.163409 0.53655,-1.397266 1.486691,-2.1909125 0.961319,-0.804825 2.436831,-0.804825 1.531403,0 2.582147,0.7712906 1.050743,0.7601129 1.587293,2.1461999 0.547729,1.374909 0.547729,3.2193 z m -3.375794,-0.234741 q 0,-0.983675 -0.223563,-1.743787 -0.212384,-0.771291 -0.704221,-1.207238 -0.491838,-0.447125 -1.307841,-0.447125 -0.625975,0 -1.0731,0.201206 -0.435947,0.190028 -0.726578,0.570085 -0.279453,0.380056 -0.424769,0.938962 -0.134137,0.547728 -0.156494,1.274306 v 1.229594 q 0.04471,0.827181 0.279454,1.475513 0.245918,0.648331 0.760112,1.028387 0.514194,0.368878 1.363731,0.368878 0.827181,0 1.307841,-0.469481 0.480659,-0.469481 0.693044,-1.25195 0.212384,-0.793647 0.212384,-1.732609 z"
       id="path19" />
    <path
       d="m 83.317902,21.499502 q -1.911459,0 -3.27519,-0.793646 -1.352553,-0.793647 -2.079131,-2.123844 -0.7154,-1.330197 -0.7154,-2.939847 v -0.435947 q 0,-1.810856 0.681865,-3.2193 0.693044,-1.419622 1.96735,-2.2244465 1.274306,-0.804825 3.04045,-0.804825 1.754966,0 2.951025,0.7377563 1.196059,0.7377562 1.810856,2.0791312 0.614797,1.330197 0.614797,3.129875 v 1.4308 H 78.667802 V 14.06605 h 6.326819 v -0.268275 q 0,-0.625975 -0.223563,-1.106635 -0.223562,-0.480659 -0.681865,-0.748934 -0.447125,-0.268275 -1.173703,-0.268275 -0.827181,0 -1.330197,0.469481 -0.503016,0.469481 -0.737756,1.263128 -0.223563,0.793647 -0.223563,1.799678 v 0.435947 q 0,0.927784 0.346522,1.632006 0.346522,0.704222 0.994853,1.106635 0.648331,0.391234 1.564938,0.391234 0.860715,0 1.60965,-0.312987 0.748934,-0.324166 1.274306,-1.006032 l 1.632006,1.866747 q -0.570084,0.816003 -1.766144,1.497869 -1.184881,0.681865 -2.962203,0.681865 z"
       id="path21" />
    <path
       d="m 96.02743,9.181209 h 2.123844 l -0.648331,3.789384 -2.481544,8.305347 h -1.777322 l 0.290631,-3.286369 z m -1.866747,8.786006 0.12296,3.308725 H 92.204512 L 89.164062,9.181209 h 3.252834 z m 7.902937,-8.786006 h 3.25283 l -3.02927,12.094731 h -2.07913 l 0.14531,-3.465219 z m -1.11781,8.76365 0.3018,3.331081 H 99.459115 L 96.977571,12.99295 96.351596,9.181209 h 2.101487 z"
       id="path23" />
    <path
       d="m 110.41368,21.27594 h -3.38697 V 9.181209 h 3.38697 z M 106.8255,6.0625122 q 0,-0.7601124 0.51419,-1.2407718 0.5142,-0.4918375 1.37491,-0.4918375 0.86072,0 1.36373,0.4918375 0.5142,0.4806594 0.5142,1.2407718 0,0.7489344 -0.5142,1.2407719 -0.50301,0.4918375 -1.36373,0.4918375 -0.86071,0 -1.37491,-0.4918375 -0.51419,-0.4918375 -0.51419,-1.2407719 z"
       id="path25" />
    <path
       d="m 116.37162,21.27594 h -3.3758 V 9.181209 h 3.17459 l 0.20121,2.783353 z m 3.53228,-8.920144 q -0.24592,-0.03353 -0.58126,-0.05589 -0.33534,-0.03354 -0.60362,-0.03354 -0.88307,0 -1.45315,0.279454 -0.57009,0.268275 -0.84954,0.804825 -0.27946,0.53655 -0.30181,1.330196 l -0.65951,-0.290631 q 0,-1.576115 0.40241,-2.805709 0.40241,-1.229594 1.18488,-1.9226376 0.78247,-0.7042219 1.90028,-0.7042219 0.2571,0 0.53655,0.033534 0.29064,0.033534 0.46949,0.1117812 z"
       id="path27" />
    <path
       d="m 127.06908,21.499502 q -1.91146,0 -3.27519,-0.793646 -1.35255,-0.793647 -2.07913,-2.123844 -0.7154,-1.330197 -0.7154,-2.939847 v -0.435947 q 0,-1.810856 0.68186,-3.2193 0.69305,-1.419622 1.96735,-2.2244465 1.27431,-0.804825 3.04045,-0.804825 1.75497,0 2.95103,0.7377563 1.19606,0.7377562 1.81086,2.0791312 0.61479,1.330197 0.61479,3.129875 v 1.4308 h -9.64672 V 14.06605 h 6.32682 v -0.268275 q 0,-0.625975 -0.22356,-1.106635 -0.22357,-0.480659 -0.68187,-0.748934 -0.44712,-0.268275 -1.1737,-0.268275 -0.82718,0 -1.3302,0.469481 -0.50301,0.469481 -0.73775,1.263128 -0.22357,0.793647 -0.22357,1.799678 v 0.435947 q 0,0.927784 0.34652,1.632006 0.34653,0.704222 0.99486,1.106635 0.64833,0.391234 1.56494,0.391234 0.86071,0 1.60965,-0.312987 0.74893,-0.324166 1.2743,-1.006032 l 1.63201,1.866747 q -0.57009,0.816003 -1.76615,1.497869 -1.18488,0.681865 -2.9622,0.681865 z"
       id="path29" />
  </g>
  <rect
     style="fill:#1a5fb4;fill-opacity:1;stroke:none;stop-color:#000000"
     id="rect5604"
     width="35"
     height="26"
     x="0"
     y="0" />
  <g
     id="g905"
     transform="matrix(2.2813695e-4,0,0,2.2813701e-4,17.366329,13.774875)"
     style="fill:#99c1f1">
    <path
       inkscape:connector-curvature="0"
       inkscape:label="#path847"
       id="pwlogo"
       d="m -48643.062,-46768.757 c -2253.211,0 -4416.886,896.109 -6010.147,2489.369 -1593.261,1593.261 -2489.367,3756.934 -2489.367,6010.146 0,2253.213 896.106,4416.886 2489.367,6010.146 455.029,455.028 960.45,845.756 1497.315,1182.43 v 62202.843 c -536.865,336.68 -1042.286,727.4 -1497.315,1182.43 -1593.261,1593.27 -2489.367,3756.94 -2489.367,6010.15 0,2253.21 896.106,4416.89 2489.367,6010.14 1593.261,1593.26 3756.936,2489.37 6010.147,2489.37 2253.211,0 4416.886,-896.11 6010.146,-2489.37 1593.261,-1593.25 2489.366,-3756.93 2489.366,-6010.14 0,-2253.21 -896.105,-4416.88 -2489.366,-6010.15 -674.305,-674.3 -1455.214,-1214.74 -2297.384,-1624.23 V 14192.22 L -15595.291,-2744.1518 V -28449.938 l -6974.885,-6974.889 c 322.287,-906.041 501.247,-1865.022 501.247,-2844.415 0,-2253.212 -896.104,-4416.885 -2489.369,-6010.146 -1593.261,-1593.26 -3756.933,-2489.369 -6010.146,-2489.369 -2253.208,0 -4416.885,896.109 -6010.146,2489.369 -1593.261,1593.261 -2489.365,3756.934 -2489.365,6010.146 0,2253.213 896.104,4416.886 2489.365,6010.146 1593.261,1593.261 3756.938,2489.366 6010.146,2489.366 616.344,0 1224.738,-73.192 1817.828,-203.23 l 4929.73,4929.735 V -7493.1458 L -44930.3,4694.2292 V -30634.861 c 842.17,-409.491 1623.079,-949.929 2297.384,-1624.235 1593.261,-1593.26 2489.366,-3756.933 2489.366,-6010.146 0,-2253.212 -896.105,-4416.885 -2489.366,-6010.146 -1593.26,-1593.26 -3756.935,-2489.369 -6010.146,-2489.369 z m 43891.2601,0 c -2253.212,0 -4416.885,896.109 -6010.1461,2489.369 -1593.261,1593.261 -2489.369,3756.934 -2489.369,6010.146 0,2253.213 896.108,4416.886 2489.369,6010.146 811.1511,811.151 1771.3331,1438.493 2814.6961,1862.004 V 15148.93 L 18594.75,-175.25784 V 14136.79 L 53884.48,-5951.6528 V -30886.289 c 657.64,-373.491 1271.55,-828.943 1815.41,-1372.807 1593.26,-1593.26 2489.37,-3756.933 2489.37,-6010.146 0,-2253.212 -896.11,-4416.885 -2489.37,-6010.146 -1593.27,-1593.26 -3756.94,-2489.369 -6010.15,-2489.369 -2253.21,0 -4416.89,896.109 -6010.14,2489.369 -1593.27,1593.261 -2489.37,3756.934 -2489.37,6010.146 0,2253.213 896.1,4416.886 2489.37,6010.146 589.35,589.352 1258.19,1081.489 1979.28,1470.005 v 20054.707 L 26820.34,-9.7828422 V -31018.026 c 573.62,-349.065 1112.92,-758.675 1595.32,-1241.07 1593.25,-1593.26 2489.36,-3756.933 2489.36,-6010.146 0,-2253.212 -896.11,-4416.885 -2489.36,-6010.146 -1593.27,-1593.26 -3756.94,-2489.369 -6010.15,-2489.369 -2253.22,0 -4416.088,896.109 -6009.338,2489.369 -1593.263,1593.261 -2490.174,3756.934 -2490.174,6010.146 0,2253.213 896.911,4416.886 2490.174,6010.146 648.23,648.235 1393.9,1173.604 2198.578,1577.645 V -9674.0548 L 278.34317,901.13616 V -31419.665 c 345.23198,-253.464 673.54398,-532.974 980.00093,-839.431 1593.261,-1593.26 2489.365,-3756.933 2489.365,-6010.146 0,-2253.212 -896.104,-4416.885 -2489.365,-6010.146 -1593.26094,-1593.26 -3756.937,-2489.369 -6010.146,-2489.369 z m -43891.2601,5140.997 c 891.709,0 1743.965,352.685 2374.498,983.218 630.533,630.533 984.017,1483.593 984.017,2375.3 0,891.708 -353.484,1743.962 -984.017,2374.499 -630.533,630.533 -1482.789,984.016 -2374.498,984.016 -891.709,0 -1743.964,-353.483 -2374.498,-984.016 -630.533,-630.537 -984.019,-1482.791 -984.019,-2374.499 0,-891.707 353.486,-1744.767 984.019,-2375.3 630.534,-630.533 1482.789,-983.218 2374.498,-983.218 z m 18074.618,0 c 891.712,0 1743.966,352.685 2374.499,983.218 630.533,630.533 984.02,1483.593 984.02,2375.3 0,891.708 -353.487,1743.962 -984.02,2374.499 -630.533,630.533 -1482.787,984.016 -2374.499,984.016 -891.708,0 -1743.962,-353.483 -2374.495,-984.016 -630.533,-630.537 -984.019,-1482.791 -984.019,-2374.499 0,-891.707 353.486,-1744.767 984.019,-2375.3 630.533,-630.533 1482.787,-983.218 2374.495,-983.218 z m 25816.6421,0 c 891.708,0 1743.962,352.685 2374.499,983.218 630.533,630.533 984.0161,1483.593 984.0161,2375.3 0,891.708 -353.4831,1743.962 -984.0161,2374.499 -630.537,630.533 -1482.791,984.016 -2374.499,984.016 -891.712,0 -1743.966,-353.483 -2374.499,-984.016 -630.533,-630.537 -984.019,-1482.791 -984.019,-2374.499 0,-891.707 353.486,-1744.767 984.019,-2375.3 630.533,-630.533 1482.787,-983.218 2374.499,-983.218 z m 27157.3119,0 c 891.71,0 1744.77,352.685 2375.3,983.218 630.54,630.533 983.22,1483.593 983.22,2375.3 0,891.708 -352.68,1743.962 -983.22,2374.499 -630.53,630.533 -1483.59,984.016 -2375.3,984.016 -891.71,0 -1743.96,-353.483 -2374.5,-984.016 -630.53,-630.537 -984.02,-1482.791 -984.02,-2374.499 0,-891.707 353.49,-1744.767 984.02,-2375.3 630.54,-630.533 1482.79,-983.218 2374.5,-983.218 z m 27284.23,0 c 891.71,0 1744.77,352.685 2375.3,983.218 630.54,630.533 983.22,1483.593 983.22,2375.3 0,891.708 -352.68,1743.962 -983.22,2374.499 -630.53,630.533 -1483.59,984.016 -2375.3,984.016 -891.7,0 -1743.96,-353.483 -2374.5,-984.016 -630.53,-630.537 -984.01,-1482.791 -984.01,-2374.499 0,-891.707 353.48,-1744.767 984.01,-2375.3 630.54,-630.533 1482.8,-983.218 2374.5,-983.218 z m -98332.802,76587.997 c 891.709,0 1743.965,353.49 2374.498,984.02 630.533,630.53 984.017,1482.79 984.017,2374.5 0,891.7 -353.484,1743.96 -984.017,2374.5 -630.533,630.53 -1482.789,984.01 -2374.498,984.01 -891.709,0 -1743.964,-353.48 -2374.498,-984.01 -630.533,-630.54 -984.019,-1482.8 -984.019,-2374.5 0,-891.71 353.486,-1743.97 984.019,-2374.5 630.534,-630.53 1482.789,-984.02 2374.498,-984.02 z"
       style="color:#000000;font-style:normal;font-variant:normal;font-weight:normal;font-stretch:normal;font-size:medium;line-height:normal;font-family:sans-serif;font-variant-ligatures:normal;font-variant-position:normal;font-variant-caps:normal;font-variant-numeric:normal;font-variant-alternates:normal;font-variant-east-asian:normal;font-feature-settings:normal;text-indent:0;text-align:start;text-decoration:none;text-decoration-line:none;text-decoration-style:solid;text-decoration-color:#000000;letter-spacing:normal;word-spacing:normal;text-transform:none;writing-mode:lr-tb;direction:ltr;text-orientation:mixed;dominant-baseline:auto;baseline-shift:baseline;text-anchor:start;white-space:normal;shape-padding:0;clip-rule:nonzero;display:inline;overflow:visible;visibility:visible;opacity:1;isolation:auto;mix-blend-mode:normal;color-interpolation:sRGB;color-interpolation-filters:linearRGB;solid-color:#000000;solid-opacity:1;vector-effect:none;fill:#99c1f1;fill-opacity:1;fill-rule:nonzero;stroke:none;stroke-width:5141;stroke-linecap:butt;stroke-linejoin:miter;stroke-miterlimit:4;stroke-dasharray:none;stroke-dashoffset:0;stroke-opacity:1;color-rendering:auto;image-rendering:auto;shape-rendering:auto;text-rendering:auto;enable-background:accumulate" />
  </g>
  <text
     xml:space="preserve"
     style="font-style:normal;font-variant:normal;font-weight:bold;font-stretch:normal;font-size:22.8928px;line-height:1.25;font-family:Heebo;-inkscape-font-specification:'Heebo, Bold';font-variant-ligatures:normal;font-variant-caps:normal;font-variant-numeric:normal;font-variant-east-asian:normal;text-align:center;letter-spacing:0px;word-spacing:0px;text-anchor:middle;fill:#201a26;fill-opacity:1;stroke-width:0.27736"
     x="88.588387"
     y="-38.72406"
     id="text13"><tspan
       sodipodi:role="line"
       id="tspan11"
       x="88.588387"
       y="-38.72406"
       style="fill:#201a26;fill-opacity:1;stroke-width:0.27736">pipewire</tspan></text>
</svg>
