<?xml version="1.0" encoding="UTF-8" standalone="no"?>
<svg
   width="130"
   height="26"
   version="1.1"
   id="svg10"
   sodipodi:docname="page-logo-i.svg"
   inkscape:version="1.1 (c68e22c387, 2021-05-23)"
   xmlns:inkscape="http://www.inkscape.org/namespaces/inkscape"
   xmlns:sodipodi="http://sodipodi.sourceforge.net/DTD/sodipodi-0.dtd"
   xmlns="http://www.w3.org/2000/svg"
   xmlns:svg="http://www.w3.org/2000/svg">
  <defs
     id="defs14" />
  <sodipodi:namedview
     id="namedview12"
     pagecolor="#505050"
     bordercolor="#ffffff"
     borderopacity="1"
     inkscape:pageshadow="0"
     inkscape:pageopacity="0"
     inkscape:pagecheckerboard="1"
     showgrid="true"
     width="137px"
     inkscape:current-layer="svg10"
     showguides="true"
     inkscape:guide-bbox="true">
    <inkscape:grid
       type="xygrid"
       id="grid5602" />
    <sodipodi:guide
       position="60,11"
       orientation="0,-1"
       id="guide140" />
  </sodipodi:namedview>
  <rect
     style="fill:#1a5fb4;fill-opacity:1;stroke:none;stop-color:#000000"
     id="rect5604"
     width="35"
     height="26"
     x="0"
     y="0" />
  <g
     id="g905"
     transform="matrix(1.6344262e-4,0,0,1.6344267e-4,17.621336,14.952499)"
     style="fill:#99c1f1">
    <path
       inkscape:connector-curvature="0"
       inkscape:label="#path847"
       id="pwlogo"
       d="m -48643.062,-46768.757 c -2253.211,0 -4416.886,896.109 -6010.147,2489.369 -1593.261,1593.261 -2489.367,3756.934 -2489.367,6010.146 0,2253.213 896.106,4416.886 2489.367,6010.146 455.029,455.028 960.45,845.756 1497.315,1182.43 v 62202.843 c -536.865,336.68 -1042.286,727.4 -1497.315,1182.43 -1593.261,1593.27 -2489.367,3756.94 -2489.367,6010.15 0,2253.21 896.106,4416.89 2489.367,6010.14 1593.261,1593.26 3756.936,2489.37 6010.147,2489.37 2253.211,0 4416.886,-896.11 6010.146,-2489.37 1593.261,-1593.25 2489.366,-3756.93 2489.366,-6010.14 0,-2253.21 -896.105,-4416.88 -2489.366,-6010.15 -674.305,-674.3 -1455.214,-1214.74 -2297.384,-1624.23 V 14192.22 L -15595.291,-2744.1518 V -28449.938 l -6974.885,-6974.889 c 322.287,-906.041 501.247,-1865.022 501.247,-2844.415 0,-2253.212 -896.104,-4416.885 -2489.369,-6010.146 -1593.261,-1593.26 -3756.933,-2489.369 -6010.146,-2489.369 -2253.208,0 -4416.885,896.109 -6010.146,2489.369 -1593.261,1593.261 -2489.365,3756.934 -2489.365,6010.146 0,2253.213 896.104,4416.886 2489.365,6010.146 1593.261,1593.261 3756.938,2489.366 6010.146,2489.366 616.344,0 1224.738,-73.192 1817.828,-203.23 l 4929.73,4929.735 V -7493.1458 L -44930.3,4694.2292 V -30634.861 c 842.17,-409.491 1623.079,-949.929 2297.384,-1624.235 1593.261,-1593.26 2489.366,-3756.933 2489.366,-6010.146 0,-2253.212 -896.105,-4416.885 -2489.366,-6010.146 -1593.26,-1593.26 -3756.935,-2489.369 -6010.146,-2489.369 z m 43891.2601,0 c -2253.212,0 -4416.885,896.109 -6010.1461,2489.369 -1593.261,1593.261 -2489.369,3756.934 -2489.369,6010.146 0,2253.213 896.108,4416.886 2489.369,6010.146 811.1511,811.151 1771.3331,1438.493 2814.6961,1862.004 V 15148.93 L 18594.75,-175.25784 V 14136.79 L 53884.48,-5951.6528 V -30886.289 c 657.64,-373.491 1271.55,-828.943 1815.41,-1372.807 1593.26,-1593.26 2489.37,-3756.933 2489.37,-6010.146 0,-2253.212 -896.11,-4416.885 -2489.37,-6010.146 -1593.27,-1593.26 -3756.94,-2489.369 -6010.15,-2489.369 -2253.21,0 -4416.89,896.109 -6010.14,2489.369 -1593.27,1593.261 -2489.37,3756.934 -2489.37,6010.146 0,2253.213 896.1,4416.886 2489.37,6010.146 589.35,589.352 1258.19,1081.489 1979.28,1470.005 v 20054.707 L 26820.34,-9.7828422 V -31018.026 c 573.62,-349.065 1112.92,-758.675 1595.32,-1241.07 1593.25,-1593.26 2489.36,-3756.933 2489.36,-6010.146 0,-2253.212 -896.11,-4416.885 -2489.36,-6010.146 -1593.27,-1593.26 -3756.94,-2489.369 -6010.15,-2489.369 -2253.22,0 -4416.088,896.109 -6009.338,2489.369 -1593.263,1593.261 -2490.174,3756.934 -2490.174,6010.146 0,2253.213 896.911,4416.886 2490.174,6010.146 648.23,648.235 1393.9,1173.604 2198.578,1577.645 V -9674.0548 L 278.34317,901.13616 V -31419.665 c 345.23198,-253.464 673.54398,-532.974 980.00093,-839.431 1593.261,-1593.26 2489.365,-3756.933 2489.365,-6010.146 0,-2253.212 -896.104,-4416.885 -2489.365,-6010.146 -1593.26094,-1593.26 -3756.937,-2489.369 -6010.146,-2489.369 z m -43891.2601,5140.997 c 891.709,0 1743.965,352.685 2374.498,983.218 630.533,630.533 984.017,1483.593 984.017,2375.3 0,891.708 -353.484,1743.962 -984.017,2374.499 -630.533,630.533 -1482.789,984.016 -2374.498,984.016 -891.709,0 -1743.964,-353.483 -2374.498,-984.016 -630.533,-630.537 -984.019,-1482.791 -984.019,-2374.499 0,-891.707 353.486,-1744.767 984.019,-2375.3 630.534,-630.533 1482.789,-983.218 2374.498,-983.218 z m 18074.618,0 c 891.712,0 1743.966,352.685 2374.499,983.218 630.533,630.533 984.02,1483.593 984.02,2375.3 0,891.708 -353.487,1743.962 -984.02,2374.499 -630.533,630.533 -1482.787,984.016 -2374.499,984.016 -891.708,0 -1743.962,-353.483 -2374.495,-984.016 -630.533,-630.537 -984.019,-1482.791 -984.019,-2374.499 0,-891.707 353.486,-1744.767 984.019,-2375.3 630.533,-630.533 1482.787,-983.218 2374.495,-983.218 z m 25816.6421,0 c 891.708,0 1743.962,352.685 2374.499,983.218 630.533,630.533 984.0161,1483.593 984.0161,2375.3 0,891.708 -353.4831,1743.962 -984.0161,2374.499 -630.537,630.533 -1482.791,984.016 -2374.499,984.016 -891.712,0 -1743.966,-353.483 -2374.499,-984.016 -630.533,-630.537 -984.019,-1482.791 -984.019,-2374.499 0,-891.707 353.486,-1744.767 984.019,-2375.3 630.533,-630.533 1482.787,-983.218 2374.499,-983.218 z m 27157.3119,0 c 891.71,0 1744.77,352.685 2375.3,983.218 630.54,630.533 983.22,1483.593 983.22,2375.3 0,891.708 -352.68,1743.962 -983.22,2374.499 -630.53,630.533 -1483.59,984.016 -2375.3,984.016 -891.71,0 -1743.96,-353.483 -2374.5,-984.016 -630.53,-630.537 -984.02,-1482.791 -984.02,-2374.499 0,-891.707 353.49,-1744.767 984.02,-2375.3 630.54,-630.533 1482.79,-983.218 2374.5,-983.218 z m 27284.23,0 c 891.71,0 1744.77,352.685 2375.3,983.218 630.54,630.533 983.22,1483.593 983.22,2375.3 0,891.708 -352.68,1743.962 -983.22,2374.499 -630.53,630.533 -1483.59,984.016 -2375.3,984.016 -891.7,0 -1743.96,-353.483 -2374.5,-984.016 -630.53,-630.537 -984.01,-1482.791 -984.01,-2374.499 0,-891.707 353.48,-1744.767 984.01,-2375.3 630.54,-630.533 1482.8,-983.218 2374.5,-983.218 z m -98332.802,76587.997 c 891.709,0 1743.965,353.49 2374.498,984.02 630.533,630.53 984.017,1482.79 984.017,2374.5 0,891.7 -353.484,1743.96 -984.017,2374.5 -630.533,630.53 -1482.789,984.01 -2374.498,984.01 -891.709,0 -1743.964,-353.48 -2374.498,-984.01 -630.533,-630.54 -984.019,-1482.8 -984.019,-2374.5 0,-891.71 353.486,-1743.97 984.019,-2374.5 630.534,-630.53 1482.789,-984.02 2374.498,-984.02 z"
       style="color:#000000;font-style:normal;font-variant:normal;font-weight:normal;font-stretch:normal;font-size:medium;line-height:normal;font-family:sans-serif;font-variant-ligatures:normal;font-variant-position:normal;font-variant-caps:normal;font-variant-numeric:normal;font-variant-alternates:normal;font-variant-east-asian:normal;font-feature-settings:normal;text-indent:0;text-align:start;text-decoration:none;text-decoration-line:none;text-decoration-style:solid;text-decoration-color:#000000;letter-spacing:normal;word-spacing:normal;text-transform:none;writing-mode:lr-tb;direction:ltr;text-orientation:mixed;dominant-baseline:auto;baseline-shift:baseline;text-anchor:start;white-space:normal;shape-padding:0;clip-rule:nonzero;display:inline;overflow:visible;visibility:visible;opacity:1;isolation:auto;mix-blend-mode:normal;color-interpolation:sRGB;color-interpolation-filters:linearRGB;solid-color:#000000;solid-opacity:1;vector-effect:none;fill:#99c1f1;fill-opacity:1;fill-rule:nonzero;stroke:none;stroke-width:5141;stroke-linecap:butt;stroke-linejoin:miter;stroke-miterlimit:4;stroke-dasharray:none;stroke-dashoffset:0;stroke-opacity:1;color-rendering:auto;image-rendering:auto;shape-rendering:auto;text-rendering:auto;enable-background:accumulate" />
  </g>
  <g
     aria-label="pipewire"
     id="text58"
     style="font-weight:900;font-size:17.6016px;line-height:1.25;font-family:Inter;-inkscape-font-specification:'Inter, Heavy';text-align:center;letter-spacing:0px;word-spacing:0px;text-anchor:middle;fill:#ffffff;stroke-width:0.213254">
    <path
       d="m 43.871327,21.496245 h 3.450314 v -5.17547 h 0.05 c 0.400037,0.975088 1.325121,1.700154 2.675244,1.700154 2.050186,0 3.775343,-1.600145 3.775343,-4.925448 0,-3.4753157 -1.850168,-4.9254476 -3.750341,-4.9254476 -1.42513,0 -2.325211,0.8250751 -2.700246,1.8001637 h -0.07501 V 8.2950448 h -3.425312 z m 3.375307,-8.400764 c 0,-1.425129 0.575052,-2.275207 1.525139,-2.275207 0.950086,0 1.500136,0.850078 1.500136,2.275207 0,1.42513 -0.55005,2.275207 -1.500136,2.275207 -0.950087,0 -1.525139,-0.875079 -1.525139,-2.275207 z"
       id="path26"
       style="fill:#ffffff" />
    <path
       d="m 55.272342,17.895918 h 3.450314 V 8.2950448 H 55.272342 Z M 56.997499,7.2949539 c 0.937586,0 1.700155,-0.7063143 1.700155,-1.5751433 0,-0.868829 -0.762569,-1.5751432 -1.700155,-1.5751432 -0.937585,0 -1.700154,0.7063142 -1.700154,1.5751432 0,0.868829 0.762569,1.5751433 1.700154,1.5751433 z"
       id="path28"
       style="fill:#ffffff" />
    <path
       d="m 60.472806,21.496245 h 3.450313 v -5.17547 h 0.05 c 0.400036,0.975088 1.325121,1.700154 2.675243,1.700154 2.050187,0 3.775344,-1.600145 3.775344,-4.925448 0,-3.4753157 -1.850169,-4.9254476 -3.750341,-4.9254476 -1.42513,0 -2.325212,0.8250751 -2.700246,1.8001637 h -0.07501 V 8.2950448 h -3.425311 z m 3.375307,-8.400764 c 0,-1.425129 0.575052,-2.275207 1.525138,-2.275207 0.950087,0 1.500137,0.850078 1.500137,2.275207 0,1.42513 -0.55005,2.275207 -1.500137,2.275207 -0.950086,0 -1.525138,-0.875079 -1.525138,-2.275207 z"
       id="path30"
       style="fill:#ffffff" />
    <path
       d="m 76.47424,18.070934 c 2.662742,0 4.375398,-1.275116 4.700428,-3.275298 h -3.150287 c -0.200018,0.543799 -0.76882,0.850077 -1.475134,0.850077 -1.025093,0 -1.625148,-0.675061 -1.625148,-1.600145 v -0.150014 h 6.250569 v -0.800073 c 0,-3.056528 -1.875171,-4.9254476 -4.775435,-4.9254476 -2.97527,0 -4.875443,1.9751796 -4.875443,4.9504506 0,3.106532 1.875171,4.95045 4.95045,4.95045 z m -1.550141,-6.075553 c 0.01875,-0.831325 0.706315,-1.400127 1.550141,-1.400127 0.856328,0 1.506387,0.575052 1.525139,1.400127 z"
       id="path32"
       style="fill:#ffffff" />
    <path
       d="m 84.149916,17.895918 h 3.725339 l 1.350122,-5.150468 h 0.100009 l 1.350123,5.150468 h 3.725339 L 96.801066,8.2950448 H 93.350752 L 92.300657,14.095572 H 92.22565 L 90.950534,8.2950448 H 87.60023 l -1.225112,5.8505322 h -0.07501 l -1.1001,-5.8505322 h -3.450314 z"
       id="path34"
       style="fill:#ffffff" />
    <path
       d="m 97.851128,17.895918 h 3.450312 V 8.2950448 H 97.851128 Z M 99.576285,7.2949539 c 0.937585,0 1.700155,-0.7063143 1.700155,-1.5751433 0,-0.868829 -0.76257,-1.5751432 -1.700155,-1.5751432 -0.937585,0 -1.700154,0.7063142 -1.700154,1.5751432 0,0.868829 0.762569,1.5751433 1.700154,1.5751433 z"
       id="path36"
       style="fill:#ffffff" />
    <path
       d="m 103.05159,17.895918 h 3.45032 v -5.000455 c 0,-1.1001 0.75632,-1.825166 1.77516,-1.825166 0.35628,0 0.93133,0.05626 1.27512,0.175016 V 8.3012954 c -0.27503,-0.081257 -0.57506,-0.131262 -0.87508,-0.131262 -1.0251,0 -1.82517,0.6000546 -2.1752,1.9501776 H 106.4019 V 8.2950448 h -3.35031 z"
       id="path38"
       style="fill:#ffffff" />
    <path
       d="m 114.72763,18.070934 c 2.66274,0 4.3754,-1.275116 4.70043,-3.275298 h -3.15029 c -0.20002,0.543799 -0.76882,0.850077 -1.47514,0.850077 -1.02509,0 -1.62514,-0.675061 -1.62514,-1.600145 v -0.150014 h 6.25057 v -0.800073 c 0,-3.056528 -1.87518,-4.9254476 -4.77544,-4.9254476 -2.97527,0 -4.87544,1.9751796 -4.87544,4.9504506 0,3.106532 1.87517,4.95045 4.95045,4.95045 z m -1.55014,-6.075553 c 0.0187,-0.831325 0.70631,-1.400127 1.55014,-1.400127 0.85633,0 1.50638,0.575052 1.52514,1.400127 z"
       id="path40"
       style="fill:#ffffff" />
  </g>
</svg>
