<?xml version="1.0" encoding="UTF-8" standalone="no"?>
<svg
   xmlns:dc="http://purl.org/dc/elements/1.1/"
   xmlns:cc="http://creativecommons.org/ns#"
   xmlns:rdf="http://www.w3.org/1999/02/22-rdf-syntax-ns#"
   xmlns:svg="http://www.w3.org/2000/svg"
   xmlns="http://www.w3.org/2000/svg"
   xmlns:xlink="http://www.w3.org/1999/xlink"
   width="100%"
   height="100%"
   id="svg913"
   version="1.1"
   viewBox="0 0 900 900">
  <defs
     id="defs907">
    <linearGradient
       id="linearGradient1166">
      <stop
         id="stop1162"
         offset="0"
         style="stop-color:#ffffff;stop-opacity:1;" />
      <stop
         style="stop-color:#ffffff;stop-opacity:0"
         offset="0.29126328"
         id="stop1172" />
      <stop
         style="stop-color:#ffffff;stop-opacity:0.1466528"
         offset="0.47772565"
         id="stop1170" />
      <stop
         id="stop1176"
         offset="0.59334886"
         style="stop-color:#ffffff;stop-opacity:0.20460375" />
      <stop
         id="stop1174"
         offset="0.72054309"
         style="stop-color:#ffffff;stop-opacity:0.10194571" />
      <stop
         id="stop1164"
         offset="1"
         style="stop-color:#ffffff;stop-opacity:0;" />
    </linearGradient>
    <radialGradient
       gradientUnits="userSpaceOnUse"
       gradientTransform="matrix(2.8576359,0,0,2.8576452,-1307.406,-1065.8224)"
       r="300.20215"
       fy="451.62891"
       fx="457.88379"
       cy="451.62891"
       cx="457.88379"
       id="radialGradient1168"
       xlink:href="#linearGradient1166" />
    <clipPath
       id="clipPath1214"
       clipPathUnits="userSpaceOnUse">
      <path
         style="color:#000000;font-style:normal;font-variant:normal;font-weight:normal;font-stretch:normal;font-size:medium;line-height:normal;font-family:sans-serif;font-variant-ligatures:normal;font-variant-position:normal;font-variant-caps:normal;font-variant-numeric:normal;font-variant-alternates:normal;font-variant-east-asian:normal;font-feature-settings:normal;text-indent:0;text-align:start;text-decoration:none;text-decoration-line:none;text-decoration-style:solid;text-decoration-color:#000000;letter-spacing:normal;word-spacing:normal;text-transform:none;writing-mode:lr-tb;direction:ltr;text-orientation:mixed;dominant-baseline:auto;baseline-shift:baseline;text-anchor:start;white-space:normal;shape-padding:0;clip-rule:nonzero;display:inline;overflow:visible;visibility:visible;opacity:1;isolation:auto;mix-blend-mode:normal;color-interpolation:sRGB;color-interpolation-filters:linearRGB;solid-color:#000000;solid-opacity:1;vector-effect:none;fill:#ffffff;fill-opacity:1;fill-rule:nonzero;stroke:none;stroke-width:7.40894222;stroke-linecap:butt;stroke-linejoin:miter;stroke-miterlimit:4;stroke-dasharray:none;stroke-dashoffset:0;stroke-opacity:1;marker:none;paint-order:normal;color-rendering:auto;image-rendering:auto;shape-rendering:auto;text-rendering:auto;enable-background:accumulate"
         d="m 229.08322,-213.5071 v 460.89195 l 91.03087,53.96444 v 220.99125 h 0.19174 c -0.29519,4.16712 -1.6168,6.39242 -3.23056,8.90303 -0.79533,1.23727 -1.72438,2.60411 -2.53236,4.16753 -1.1935,1.78635 -1.89926,3.91989 -1.89926,6.20788 0,0.21428 0.0206,0.42523 0.0326,0.6367 -0.007,0.18773 -0.0326,0.36106 -0.0326,0.55351 h 0.0687 c 0.60245,5.6259 5.42505,10.06429 11.20022,10.06429 5.7752,0 10.58486,-4.43839 11.18579,-10.06429 h 0.065 c 0,-0.19225 -0.0261,-0.36573 -0.0326,-0.55351 0.013,-0.2115 0.0326,-0.42238 0.0326,-0.6367 0,-1.96924 -0.5185,-3.82229 -1.42174,-5.44094 -0.88579,-2.03465 -2.03114,-3.74367 -2.9954,-5.26369 -1.61996,-2.55358 -2.92809,-4.72375 -3.2378,-8.57381 h 0.0148 V 297.12749 l -91.0311,-53.96083 V -213.5071 Z m 60.7186,0 v 427.37806 l 90.93681,52.50291 v 212.79365 h -0.13392 c 0,5.3891 -1.46139,7.86544 -3.29566,10.71909 -0.793,1.23368 -1.72236,2.59543 -2.52875,4.15307 -1.19891,1.78903 -1.90287,3.93231 -1.90287,6.22597 0,0.21988 0.0198,0.43426 0.0326,0.65117 -0.006,0.18263 -0.0326,0.35196 -0.0326,0.53904 h 0.0652 c 0.60404,5.6243 5.4262,10.06068 11.20023,10.06068 5.77401,0 10.5869,-4.43638 11.18939,-10.06068 h 0.065 c 0,-0.19187 -0.0261,-0.36608 -0.0326,-0.5535 0.013,-0.21218 0.0326,-0.4217 0.0326,-0.63671 0,-1.96468 -0.51876,-3.8177 -1.41811,-5.4337 -0.88624,-2.03807 -2.03353,-3.75259 -2.99903,-5.27454 -1.4769,-2.32805 -2.68357,-4.35744 -3.12204,-7.61154 h 0.28949 V 262.0978 l -90.9368,-52.50653 V -213.5071 Z m 60.62455,0 v 392.42433 l 90.94041,50.02483 v 238.71411 c -0.52599,2.90383 -1.64617,4.78129 -2.97008,6.84097 -0.79031,1.22946 -1.71339,2.58767 -2.51789,4.1386 -1.20441,1.79173 -1.91373,3.94102 -1.91373,6.24044 0,0.21375 0.0206,0.42213 0.0326,0.63308 -0.007,0.18893 -0.0326,0.36343 -0.0326,0.55712 h 0.0687 c 0.60405,5.62429 5.42624,10.0643 11.20023,10.0643 5.77403,0 10.58327,-4.44001 11.18578,-10.0643 h 0.065 c 0,-0.19223 -0.0261,-0.36571 -0.0326,-0.55349 0.013,-0.21217 0.0326,-0.42172 0.0326,-0.63671 0,-1.96463 -0.5152,-3.81775 -1.41449,-5.43371 -0.88624,-2.03806 -2.03354,-3.74898 -2.99903,-5.27091 -1.80704,-2.8485 -3.21806,-5.24074 -3.29569,-9.99918 V 224.5611 L 357.8352,174.53627 V -213.5071 Z m 253.0255,0 v 423.09837 l -90.94042,52.50653 v 216.00252 h 0.40518 c -0.31033,3.8475 -1.61843,6.02117 -3.2378,8.57383 -0.9655,1.52194 -2.11279,3.23285 -2.99903,5.27091 -0.89936,1.616 -1.41811,3.46903 -1.41811,5.43371 0,0.21253 0.0207,0.4197 0.0326,0.62947 -0.007,0.19015 -0.0326,0.36602 -0.0326,0.56073 h 0.0687 c 0.60251,5.62431 5.41177,10.0643 11.18578,10.0643 5.77403,0 10.59617,-4.43999 11.20023,-10.0643 h 0.0652 c 0,-0.18743 -0.0261,-0.35608 -0.0326,-0.53902 0.013,-0.21692 0.0326,-0.4313 0.0326,-0.65118 0,-2.29942 -0.7057,-4.44871 -1.91011,-6.24044 -0.8045,-1.55093 -1.7276,-2.90914 -2.5179,-4.13859 -1.83426,-2.85365 -3.29566,-5.32998 -3.29566,-10.7191 H 519.9205 V 266.37387 l 90.94042,-52.50291 V -213.5071 Z m 60.71499,0 v 456.67376 l -91.02725,53.96083 v 218.55658 c -0.3214,3.7999 -1.61832,5.96212 -3.22695,8.49785 -0.9655,1.52193 -2.11277,3.23647 -2.99903,5.27454 -0.89935,1.616 -1.41811,3.4654 -1.41811,5.43009 0,0.21797 0.02,0.43249 0.0326,0.64754 -0.006,0.18411 -0.0326,0.3542 -0.0326,0.54265 h 0.0652 c 0.6009,5.62592 5.41421,10.06431 11.18939,10.06431 5.7752,0 10.59779,-4.43839 11.20023,-10.06431 h 0.0652 c 0,-0.18617 -0.0261,-0.35365 -0.0326,-0.53541 0.013,-0.21742 0.0326,-0.43439 0.0326,-0.65478 0,-2.29481 -0.70287,-4.43642 -1.90288,-6.22598 -0.80605,-1.55645 -1.73261,-2.91653 -2.52513,-4.14945 -1.54841,-2.40893 -2.82144,-4.57139 -3.18351,-8.42188 h 0.14447 V 301.34929 l 91.02725,-53.96444 V -213.5071 Z M 445.23405,480.69417 c 1.53595,0 2.83318,0.78525 3.55614,1.98248 0.31018,0.80371 0.50625,1.65268 0.57521,2.62279 -0.20671,2.14105 -1.92514,3.76235 -4.13135,3.76235 -2.2062,0 -3.93761,-1.6213 -4.14582,-3.76235 0.0872,-1.10306 0.36101,-2.02874 0.79588,-2.94115 0.75549,-1.01406 1.95591,-1.66412 3.34994,-1.66412 z m -907.57376,8.66789 v 7.40894 h 388.043369 l 50.024828,90.94044 H 272.66501 c 4.69131,0.0959 7.0696,1.49783 9.89789,3.29205 1.52194,0.9655 3.23646,2.11279 5.27453,2.99903 1.61597,0.8993 3.46909,1.41449 5.4337,1.41449 0.21379,0 0.42211,-0.0206 0.6331,-0.0326 0.18778,0.006 0.36126,0.0326 0.5535,0.0326 v -0.0652 c 5.62593,-0.60093 10.06429,-5.41061 10.06429,-11.18579 0,-5.77517 -4.43836,-10.59776 -10.06429,-11.20022 v -0.0652 c -0.18996,0 -0.36091,0.0259 -0.54626,0.0326 -0.21336,-0.013 -0.42411,-0.0326 -0.64034,-0.0326 -2.29479,0 -4.44003,0.70288 -6.22958,1.90289 -1.55644,0.80604 -2.91653,1.7326 -4.14944,2.52512 -2.69239,1.7306 -5.0814,3.11422 -9.86532,3.26673 v -0.29302 H -19.890531 l -50.024828,-90.94044 z m 978.8559,3.8347 c 1.39534,0 2.59457,0.65567 3.34993,1.67136 0.43322,0.9104 0.70526,1.83329 0.79228,2.93391 -0.20821,2.14107 -1.936,3.76235 -4.14221,3.76235 -2.2062,0 -3.92465,-1.62128 -4.13136,-3.76235 0.0693,-0.97491 0.26963,-1.82629 0.58244,-2.63364 0.72474,-1.18913 2.01912,-1.97163 3.54892,-1.97163 z m -132.37336,2.88326 c 1.53415,0 2.83266,0.78759 3.55615,1.98249 0.30901,0.79979 0.50499,1.64443 0.57521,2.60832 -0.19871,2.15 -1.91899,3.77682 -4.13136,3.77682 -2.20621,0 -3.934,-1.61767 -4.14221,-3.75874 0.0872,-1.10288 0.35752,-2.02887 0.79228,-2.94115 0.75549,-1.01404 1.95589,-1.66774 3.34993,-1.66774 z m 192.60719,34.62451 c 1.39433,0 2.59446,0.65334 3.34993,1.66774 0.43476,0.91228 0.70508,1.83465 0.79228,2.93753 -0.20741,2.14194 -1.93538,3.76235 -4.14221,3.76235 -2.20681,0 -3.92544,-1.62041 -4.13136,-3.76235 0.0697,-0.97783 0.27136,-1.83119 0.58607,-2.64088 0.72558,-1.18523 2.01846,-1.96439 3.54529,-1.96439 z m -252.83741,6.73245 c 1.53621,0 2.83326,0.78852 3.55615,1.98608 0.30823,0.79889 0.50156,1.64199 0.5716,2.60471 -0.19954,2.14907 -1.91601,3.77683 -4.12775,3.77683 -2.20679,0 -3.93841,-1.6204 -4.14582,-3.76235 0.0871,-1.10037 0.35922,-2.02012 0.79228,-2.93029 0.75513,-1.01805 1.95635,-1.67498 3.35354,-1.67498 z m -786.25232,12.94756 v 7.40894 h 351.16145 l 52.506545,90.94043 H 255.47034 v -0.0941 c 2.92147,0.52357 4.80657,1.64871 6.87353,2.97732 1.23291,0.79252 2.593,1.71908 4.14944,2.52512 1.78955,1.2 3.9348,1.90287 6.22959,1.90287 0.21987,0 0.43427,-0.0198 0.65119,-0.0326 0.18263,0.006 0.35194,0.0326 0.53901,0.0326 v -0.065 c 5.62432,-0.60405 10.06068,-5.42622 10.06068,-11.20025 0,-5.77401 -4.43636,-10.58688 -10.06068,-11.18937 v -0.0652 c -0.18935,0 -0.36122,0.0263 -0.54626,0.0326 -0.21454,-0.013 -0.42649,-0.0326 -0.64394,-0.0326 -1.96467,0 -3.8177,0.51877 -5.4337,1.41813 -2.03807,0.88624 -3.7526,2.03353 -5.27454,2.99903 -2.92994,1.85871 -5.35239,3.31014 -10.38988,3.31014 v 0.0724 H -54.395662 l -52.502918,-90.94044 z m 1076.47088,22.50177 v 0.0652 c -5.62431,0.60405 -10.06067,5.4262 -10.06067,11.20023 0,5.77401 4.43638,10.58326 10.06067,11.18576 v 0.0687 c 0.1956,0 0.37336,-0.0259 0.56436,-0.0326 0.20858,0.0111 0.41453,0.0326 0.62585,0.0326 1.96467,0 3.8177,-0.51876 5.4337,-1.41811 2.03807,-0.88624 3.75259,-2.03354 5.27454,-2.99903 2.92994,-1.85872 5.35239,-3.31015 10.38987,-3.31015 v -0.0724 h 312.62265 l 52.50296,90.94041 h 355.4411 v -7.40894 h -351.1615 l -52.50649,-90.9404 H 634.60343 v 0.35091 c -4.16923,-0.29473 -6.39175,-1.61998 -8.90303,-3.23417 -1.2329,-0.79252 -2.593,-1.71908 -4.14943,-2.52514 -1.78956,-1.19998 -3.9348,-1.90287 -6.22959,-1.90287 -0.21988,0 -0.43427,0.0198 -0.65117,0.0326 -0.18263,-0.006 -0.35196,-0.0326 -0.53904,-0.0326 z m 0.76694,7.12314 c 1.10289,0.0872 2.02888,0.35752 2.94115,0.79228 1.01406,0.75551 1.66773,1.95588 1.66773,3.34993 0,1.52778 -0.78153,2.81999 -1.968,3.54529 -0.80939,0.31429 -1.66329,0.51659 -2.64088,0.58607 -2.14106,-0.20671 -3.75874,-1.92516 -3.75874,-4.13136 0,-2.20621 1.61768,-3.934 3.75874,-4.14221 z m -321.18924,0.0148 c 2.13374,0.21475 3.74428,1.94105 3.74428,4.14219 0,2.20744 -1.6195,3.92626 -3.76235,4.13136 -0.96756,-0.0691 -1.8137,-0.26613 -2.61556,-0.5752 -1.19877,-0.72265 -1.98971,-2.01904 -1.98971,-3.55616 0,-1.39431 0.65334,-2.59446 1.66773,-3.34993 0.9171,-0.43706 1.84485,-0.70663 2.95561,-0.79226 z m 340.14209,53.49053 v 0.0652 c -5.62592,0.6009 -10.06429,5.41058 -10.06429,11.18576 0,5.77519 4.43837,10.59777 10.06429,11.20024 v 0.0687 c 0.19245,0 0.36578,-0.0257 0.55351,-0.0326 0.21148,0.013 0.42242,0.0326 0.6367,0.0326 2.29479,0 4.43642,-0.7065 6.22598,-1.9065 1.55643,-0.80606 2.91653,-1.73262 4.14943,-2.52512 2.0926,-1.34509 3.99413,-2.48433 6.97845,-2.99903 v 0.0289 h 262.142 l 50.02483,90.94043 h 392.42434 v -7.40894 H 968.94282 L 918.91799,641.22367 H 655.74135 c -4.75845,-0.0776 -7.14709,-1.48503 -9.99555,-3.29205 -1.52124,-0.96505 -3.23412,-2.11657 -5.27091,-3.00266 -1.61661,-0.90022 -3.46801,-1.4145 -5.43372,-1.4145 -0.21432,0 -0.42518,0.0206 -0.6367,0.0326 -0.18778,-0.006 -0.36126,-0.0326 -0.55351,-0.0326 z m 0.77057,7.12316 c 0.96724,0.0693 1.81375,0.26222 2.61556,0.57158 1.19758,0.72289 1.98608,2.01996 1.98608,3.55614 0,1.39433 -0.65334,2.59447 -1.66774,3.34996 -0.91226,0.43474 -1.83464,0.70868 -2.93751,0.79587 -2.14195,-0.2074 -3.76236,-1.939 -3.76236,-4.14583 0,-2.20797 1.62232,-3.92333 3.76597,-4.12772 z m -361.47536,0.0111 c 2.14105,0.20671 3.75874,1.92518 3.75874,4.13136 0,2.20621 -1.61769,3.93402 -3.75874,4.14221 -1.1029,-0.0872 -2.02889,-0.3575 -2.94115,-0.79226 -1.01406,-0.75551 -1.66773,-1.95589 -1.66773,-3.34995 0,-1.52776 0.78153,-2.81998 1.968,-3.54529 0.80939,-0.31427 1.66329,-0.51657 2.64088,-0.58607 z m 0.0578,53.59185 c -1.96467,0 -3.81772,0.51875 -5.4337,1.41811 -2.03807,0.88625 -3.75259,2.03355 -5.27454,2.99902 -2.85296,1.8099 -5.24377,3.22219 -10.01726,3.29569 H -24.271513 l -50.024828,90.94043 H -462.33971 v 7.40895 h 392.424351 l 50.024828,-90.94044 H 255.47034 v -0.0904 c 3.2047,0.48093 5.1754,1.65612 7.35467,3.05691 1.23292,0.79252 2.59302,1.72269 4.14945,2.52875 1.78956,1.20001 3.9348,1.90287 6.22959,1.90287 0.21988,0 0.43426,-0.0198 0.65117,-0.0326 0.18171,0.006 0.34924,0.0326 0.53541,0.0326 v -0.0652 c 5.62594,-0.60245 10.06431,-5.42505 10.06431,-11.20024 0,-5.77518 -4.43837,-10.58849 -10.06431,-11.18938 v -0.0652 c -0.19223,0 -0.36571,0.0261 -0.55349,0.0326 -0.21098,-0.0111 -0.4193,-0.0326 -0.63309,-0.0326 z m 359.68462,0.36176 v 0.0652 c -5.62593,0.6009 -10.06429,5.41419 -10.06429,11.18937 0,5.77521 4.43836,10.59779 10.06429,11.20025 v 0.065 c 0.18618,0 0.35365,-0.0261 0.53542,-0.0326 0.21742,0.013 0.43439,0.0326 0.65479,0.0326 2.2947,0 4.43645,-0.70296 6.22597,-1.90288 1.55644,-0.80603 2.91653,-1.73623 4.14944,-2.52872 2.85364,-1.83427 5.3336,-3.29569 10.72272,-3.29569 v -0.13391 h 221.9282 l 52.50292,90.94043 h 427.37805 v -7.4089 H 933.88782 L 881.38129,701.85183 H 651.43274 v 0.13391 c -2.70938,-0.53172 -4.5583,-1.64 -6.64923,-2.96646 -1.52195,-0.9655 -3.23286,-2.11279 -5.27093,-2.99903 -1.61606,-0.89945 -3.46892,-1.41813 -5.4337,-1.41813 -0.21432,0 -0.4252,0.0206 -0.63671,0.0326 -0.18778,-0.006 -0.36126,-0.0326 -0.5535,-0.0326 z m -359.26498,6.76138 c 2.14285,0.20512 3.76235,1.92394 3.76235,4.13136 0,2.20621 -1.61766,3.934 -3.75872,4.14221 -1.10336,-0.0871 -2.0286,-0.35737 -2.94116,-0.79228 -1.01405,-0.75549 -1.66774,-1.95589 -1.66774,-3.34993 0,-1.53725 0.79076,-2.83717 1.98971,-3.55976 0.80178,-0.30901 1.64814,-0.5026 2.61556,-0.5716 z m 360.0464,0.36176 c 0.96311,0.07 1.80554,0.26678 2.60471,0.57521 1.19693,0.72304 1.98607,2.02044 1.98607,3.55615 0,1.39536 -0.65565,2.59459 -1.67134,3.34995 -0.91041,0.4332 -1.83329,0.70524 -2.93391,0.79226 -2.14196,-0.20742 -3.76237,-1.93539 -3.76237,-4.14221 0,-2.21172 1.62776,-3.93182 3.77684,-4.13136 z m -23.38448,53.11069 v 0.0652 c -5.62431,0.60249 -10.06067,5.41175 -10.06067,11.18576 0,5.77403 4.43636,10.59981 10.06067,11.20386 v 0.0652 c 0.18708,0 0.35641,-0.0261 0.53902,-0.0326 0.21692,0.013 0.43131,0.0326 0.65119,0.0326 2.30291,0 4.45432,-0.70958 6.24767,-1.91736 1.5483,-0.80376 2.90354,-1.72505 4.13135,-2.51426 2.14024,-1.37572 4.06625,-2.54196 7.17019,-3.03884 h 213.10477 l 53.96446,91.03088 h 460.89192 v -7.40894 H 900.31243 L 846.3516,762.47637 H 630.64935 c -3.77867,-0.32631 -5.93721,-1.61952 -8.46529,-3.22332 -1.51757,-0.96271 -3.22616,-2.10656 -5.25646,-2.9918 -1.62028,-0.90565 -3.4797,-1.42535 -5.45177,-1.42535 -0.21501,0 -0.42455,0.0204 -0.63671,0.0326 -0.18745,-0.006 -0.36163,-0.0326 -0.5535,-0.0326 z m -314.61235,0.49201 c -1.96478,0 -3.81764,0.51868 -5.43372,1.41811 -2.03805,0.88626 -3.74896,2.03353 -5.27091,2.99903 -2.55358,1.61998 -4.72729,2.93171 -8.57744,3.24141 v -0.40879 H 13.261598 l -52.502935,90.94044 H -462.33971 v 7.40894 H -34.961654 L 17.541262,769.98722 H 274.57513 v 0.13744 c 5.38912,0 7.86908,1.46141 10.72272,3.29568 1.23252,0.79226 2.59361,1.71562 4.14944,2.52149 1.78985,1.2006 3.93057,1.9065 6.22597,1.9065 0.2204,0 0.43737,-0.0198 0.65479,-0.0326 0.1817,0.006 0.34923,0.0326 0.53542,0.0326 v -0.0652 c 5.62593,-0.60245 10.06429,-5.42503 10.06429,-11.20022 0,-5.77518 -4.43836,-10.58486 -10.06429,-11.18577 v -0.0687 c -0.19472,0 -0.37059,0.0259 -0.56074,0.0326 -0.20912,-0.0111 -0.41761,-0.0326 -0.62947,-0.0326 z m 315.39739,6.63115 c 0.96388,0.0702 1.8085,0.2662 2.60832,0.57519 1.19487,0.72351 1.98246,2.01838 1.98246,3.55254 0,1.3978 -0.65617,2.60211 -1.67497,3.35717 -0.90975,0.43269 -1.83407,0.7017 -2.93391,0.78865 -2.14105,-0.20819 -3.75874,-1.93961 -3.75874,-4.14582 0,-2.21237 1.62682,-3.92904 3.77684,-4.12773 z m -314.97414,0.49199 c 2.14195,0.20593 3.76236,1.92455 3.76236,4.13136 0,2.20431 -1.61682,3.93152 -3.75511,4.14221 -1.10375,-0.0863 -2.02883,-0.35815 -2.94115,-0.79228 -1.01569,-0.75534 -1.67135,-1.95459 -1.67135,-3.34993 0,-1.53621 0.7885,-2.83326 1.98608,-3.55615 0.80283,-0.30975 1.65038,-0.50612 2.61917,-0.57521 z m 28.77478,32.01619 c -5.77518,0 -10.59779,4.43835 -11.20023,10.06429 h -0.0652 c 0,0.18619 0.0261,0.35365 0.0326,0.53541 -0.013,0.21743 -0.0326,0.4344 -0.0326,0.6548 0,2.29366 0.70396,4.43333 1.90288,6.22234 0.80639,1.55766 1.73575,2.91941 2.52875,4.15307 1.83425,2.85365 3.29566,5.32997 3.29566,10.71909 h 0.13392 v 252.71078 l -90.93681,52.503 v 427.483 h 7.40894 v -423.204 l 90.93692,-52.5065 V 824.0415 h -0.28941 c 0.43805,-3.25616 1.6446,-5.28625 3.12203,-7.61514 0.96658,-1.52365 2.11602,-3.23709 3.00265,-5.27815 0.89785,-1.61498 1.41449,-3.46357 1.41449,-5.42647 0,-0.21432 -0.0206,-0.4252 -0.0326,-0.63671 0.006,-0.18778 0.0326,-0.36128 0.0326,-0.5535 h -0.065 c -0.6009,-5.62595 -5.4142,-10.06429 -11.18939,-10.06429 z m 0,7.06887 c 2.21172,0 3.93182,1.62777 4.13136,3.77684 -0.07,0.96311 -0.26676,1.80552 -0.57522,2.60471 -0.72303,1.19693 -2.02041,1.98608 -3.55614,1.98608 -1.39431,0 -2.59446,-0.65334 -3.34993,-1.66774 -0.43476,-0.91226 -0.70508,-1.83464 -0.79228,-2.93753 0.20741,-2.14195 1.9354,-3.76236 4.14221,-3.76236 z m 242.9757,2.98095 c -3.99605,-0.092 -7.94118,1.94087 -10.06431,5.6182 -2.88721,5.00084 -1.4483,11.38649 3.12204,14.72022 l -0.0326,0.0543 c 0.16077,0.0928 0.31736,0.15689 0.47754,0.24239 0.18244,0.12002 0.3585,0.24405 0.54987,0.35453 1.70374,0.98365 3.57124,1.4589 5.42287,1.48685 2.20518,0.25031 4.26086,0.11484 6.05955,0.0398 3.46677,-0.14466 6.2914,-0.18898 10.65397,2.32976 l 0.0433,-0.0759 82.94543,47.88679 v 77.68899 l -102.35412,59.09063 h -0.29664 v 0.17 l -0.0361,0.022 0.0361,0.062 v 69.5963 l 90.94042,52.5066 v 423.2033 h 7.40894 v -427.4837 l -90.94041,-52.5029 v -61.1237 l 102.65075,-59.26435 v -86.24109 l -90.43757,-52.20989 c -1.99166,-1.79695 -3.00648,-3.60895 -4.06262,-5.65801 -0.67381,-1.3073 -1.39075,-2.79835 -2.34062,-4.27968 -0.95023,-1.92738 -2.44967,-3.60206 -4.43162,-4.74635 -0.18604,-0.10743 -0.37832,-0.19393 -0.56797,-0.28941 -0.15929,-0.0998 -0.29632,-0.21123 -0.46306,-0.30749 l -0.0326,0.0578 c -1.36886,-0.60581 -2.81278,-0.91473 -4.25073,-0.94783 z m -0.62224,7.0508 c 0.66438,-0.0441 1.34663,0.0935 1.99695,0.38708 0.91678,0.62876 1.58496,1.32766 2.15972,2.16335 0.50077,1.16147 0.46564,2.5259 -0.23153,3.73343 -0.76608,1.3269 -2.09282,2.05646 -3.4874,2.08737 -0.85385,-0.1328 -1.68772,-0.38749 -2.56492,-0.81396 -1.75264,-1.24917 -2.29739,-3.54398 -1.19383,-5.45543 0.73497,-1.27299 1.98721,-2.01345 3.32101,-2.10184 z M 385.96241,834.8625 c -5.77517,0 -10.59777,4.43836 -11.20022,10.06429 h -0.0687 c 0,0.19246 0.0257,0.36578 0.0326,0.5535 -0.013,0.21095 -0.0326,0.41935 -0.0326,0.6331 0,2.29479 0.70648,4.44003 1.90649,6.22958 0.80605,1.55644 1.73261,2.91653 2.52513,4.14945 1.41572,2.20252 2.6005,4.19732 3.07138,7.4632 h -0.10132 v 253.00018 l -90.94042,50.0285 v 392.5293 h 7.40895 V 1171.361 l 90.94041,-50.0248 V 866.81656 c 0.0776,-4.75845 1.48864,-7.14709 3.29569,-9.99555 0.96549,-1.52194 2.11279,-3.23647 2.99902,-5.27454 0.8993,-1.61596 1.4145,-3.46909 1.4145,-5.4337 0,-0.21378 -0.0206,-0.4221 -0.0326,-0.63309 0.006,-0.18778 0.0326,-0.36126 0.0326,-0.5535 h -0.065 c -0.60092,-5.62593 -5.4106,-10.06429 -11.18578,-10.06429 z m 0,7.06889 c 2.20744,0 3.92624,1.6195 4.13136,3.76235 -0.0689,0.96754 -0.26613,1.81367 -0.57521,2.61556 -0.72263,1.19875 -2.01905,1.98969 -3.55615,1.98969 -1.3943,0 -2.59446,-0.65334 -3.34993,-1.66773 -0.43522,-0.91323 -0.709,-1.83668 -0.79589,-2.94115 0.20821,-2.14105 1.93963,-3.75872 4.14582,-3.75872 z m 121.25994,0.35815 c -5.77401,0 -10.58689,4.43636 -11.18939,10.06067 h -0.065 c 0,0.19188 0.0261,0.36606 0.0326,0.55351 -0.013,0.21215 -0.0326,0.4217 -0.0326,0.63669 0,1.96468 0.51875,3.81771 1.41811,5.43371 0.88625,2.03806 2.03353,3.7526 2.99903,5.27454 1.85871,2.92994 3.31014,5.35239 3.31014,10.38988 h 0.0508 v 246.69826 l 90.94041,50.0248 V 1355.84 l -118.30792,66.8106 v 136.863 h 7.40894 V 1426.9774 L 602.0954,1360.163 v -193.1794 l -90.94051,-50.0284 V 871.64614 h -0.19899 c 0.44404,-3.42167 1.64753,-5.46712 3.10033,-7.72731 0.79251,-1.23292 1.72269,-2.593 2.52874,-4.14943 1.20001,-1.78956 1.90288,-3.9348 1.90288,-6.22961 0,-0.21986 -0.0198,-0.43425 -0.0326,-0.65117 0.006,-0.18263 0.0326,-0.35194 0.0326,-0.53902 h -0.0652 c -0.60403,-5.62431 -5.4262,-10.06067 -11.20023,-10.06067 z m 0,7.06887 c 2.20622,0 3.934,1.61769 4.14221,3.75874 -0.0872,1.1029 -0.35751,2.02887 -0.79227,2.94115 -0.75549,1.01406 -1.95589,1.66773 -3.34994,1.66773 -1.53724,0 -2.83716,-0.79075 -3.55977,-1.98971 -0.30925,-0.80242 -0.50275,-1.65075 -0.57158,-2.61917 0.20671,-2.14105 1.92516,-3.75874 4.13135,-3.75874 z m -60.71498,1.10339 c -5.774,0 -10.58327,4.44 -11.18577,10.06429 h -0.0687 c 0,0.19471 0.0259,0.3706 0.0326,0.56073 -0.0111,0.20977 -0.0326,0.41694 -0.0326,0.62948 0,1.96467 0.51877,3.8177 1.41812,5.4337 0.88624,2.03807 2.03354,3.74898 2.99903,5.27091 1.85872,2.92994 3.31015,5.35602 3.31015,10.39351 h 0.14114 v 268.64648 l -90.94043,52.5066 v 355.546 h 7.40894 V 1208.2429 L 450.53027,1155.74 V 878.17599 c 0.57459,-2.48011 1.61008,-4.20746 2.81453,-6.08128 0.7903,-1.22946 1.71338,-2.58766 2.51788,-4.13858 1.20443,-1.79172 1.91011,-3.94104 1.91011,-6.24044 0,-0.21988 -0.0198,-0.43427 -0.0326,-0.65119 0.006,-0.183 0.0326,-0.35159 0.0326,-0.53902 h -0.065 c -0.60405,-5.62431 -5.42622,-10.06429 -11.20025,-10.06429 z m 0,7.06888 c 2.20621,0 3.934,1.6213 4.14221,3.76235 -0.0872,1.10306 -0.35739,2.02874 -0.79226,2.94115 -0.75551,1.01406 -1.95589,1.66412 -3.34995,1.66412 -1.5266,0 -2.81966,-0.77585 -3.54529,-1.96076 -0.31516,-0.81061 -0.51646,-1.66533 -0.58607,-2.64451 0.20671,-2.14105 1.92516,-3.76235 4.13136,-3.76235 z m 121.63616,28.73136 c -6.17631,0 -11.25811,5.08181 -11.25811,11.25813 0,6.17631 5.0818,11.25811 11.25811,11.25811 6.17634,0 11.25813,-5.0818 11.25813,-11.25811 0,-6.17632 -5.08179,-11.25813 -11.25813,-11.25813 z m 48.15813,0 c -6.17632,0 -11.25811,5.08181 -11.25811,11.25813 0,6.17631 5.08179,11.25811 11.25811,11.25811 6.17633,0 11.25813,-5.0818 11.25813,-11.25811 0,-6.17632 -5.0818,-11.25813 -11.25813,-11.25813 z m -48.15813,7.07611 c 2.35192,0 4.18202,1.83012 4.18202,4.18202 0,2.35189 -1.8301,4.18199 -4.18202,4.18199 -2.35189,0 -4.18199,-1.8301 -4.18199,-4.18199 0,-2.3519 1.8301,-4.18202 4.18199,-4.18202 z m 48.15813,0 c 2.35191,0 4.18201,1.83012 4.18201,4.18202 0,2.35189 -1.8301,4.18199 -4.18201,4.18199 -2.3519,0 -4.182,-1.8301 -4.182,-4.18199 0,-2.3519 1.8301,-4.18202 4.182,-4.18202 z m 0,33.66946 c -6.17632,0 -11.25811,5.08542 -11.25811,11.26174 0,6.17632 5.08179,11.25811 11.25811,11.25811 6.17633,0 11.25813,-5.08179 11.25813,-11.25811 0,-6.17632 -5.0818,-11.26174 -11.25813,-11.26174 z m 0,7.07973 c 2.35191,0 4.18201,1.83012 4.18201,4.18201 0,2.3519 -1.8301,4.182 -4.18201,4.182 -2.3519,0 -4.182,-1.8301 -4.182,-4.182 0,-2.35189 1.8301,-4.18201 4.182,-4.18201 z m -97.1483,253.87566 -35.86898,20.711 0.52818,0.9153 c -4.45907,2.4908 -7.28381,2.4837 -10.58525,2.3262 -1.46328,-0.07 -3.1049,-0.1885 -4.85488,-0.1086 -2.15053,-0.145 -4.3609,0.3137 -6.34896,1.4616 -0.18708,0.1079 -0.36059,0.23 -0.53904,0.3473 -0.16448,0.087 -0.3269,0.1507 -0.49201,0.2459 l 0.0326,0.058 c -4.56948,3.3351 -5.99837,9.7303 -3.11116,14.7311 2.88708,5.0005 9.13565,6.9502 14.30778,4.6595 l 0.0326,0.054 c 0.16133,-0.093 0.29386,-0.2003 0.44859,-0.2965 0.19454,-0.098 0.39168,-0.1866 0.58244,-0.2968 1.70098,-0.982 3.04772,-2.3569 3.99751,-3.9431 1.3217,-1.7864 2.22893,-3.6378 3.06414,-5.2348 1.60803,-3.0746 2.98124,-5.5413 7.34383,-8.0601 l -0.369,-0.6367 24.42275,-14.1016 v 131.4581 l -113.84378,65.7255 v -96.4538 l 18.94924,-10.9398 0.25687,0.4413 c 4.36257,-2.5189 7.18719,-2.4777 10.65397,-2.3333 1.80356,0.076 3.86561,0.2132 6.07765,-0.039 1.84566,-0.032 3.70295,-0.5063 5.40113,-1.487 0.18319,-0.1056 0.35319,-0.2254 0.52819,-0.34 0.16855,-0.089 0.33368,-0.1556 0.50284,-0.2533 l -0.0326,-0.057 c 4.57032,-3.3336 6.00925,-9.7193 3.12202,-14.7201 -2.88708,-5.0006 -9.14212,-6.9598 -14.31502,-4.6704 l -0.0326,-0.054 c -0.16003,0.092 -0.29191,0.1974 -0.44496,0.293 -0.19604,0.098 -0.39388,0.1893 -0.58607,0.3003 -2.00582,1.1581 -3.52323,2.8584 -4.47141,4.8151 -0.92871,1.4596 -1.63697,2.9229 -2.30083,4.2109 -0.83187,1.614 -1.64017,3.0791 -2.91221,4.5076 l -27.80524,16.0515 v 113.5651 l 128.66166,-74.2848 z m 40.64789,5.0502 c -6.17632,0 -11.26174,5.0818 -11.26174,11.2582 0,6.1763 5.08542,11.2581 11.26174,11.2581 6.17632,0 11.25811,-5.0818 11.25811,-11.2581 0,-6.1764 -5.08179,-11.2582 -11.25811,-11.2582 z m 0,7.0762 c 2.35189,0 4.182,1.8301 4.182,4.182 0,2.3519 -1.83011,4.182 -4.182,4.182 -2.3519,0 -4.182,-1.8301 -4.182,-4.182 0,-2.3519 1.8301,-4.182 4.182,-4.182 z m -91.63864,18.7756 c 1.25604,0.1472 2.42136,0.8619 3.11841,2.0693 0.76995,1.3335 0.73106,2.8543 0.0507,4.0806 -0.53683,0.6637 -1.16759,1.2543 -1.96439,1.7944 -1.96,0.8989 -4.22732,0.221 -5.33242,-1.6931 -1.10289,-1.9102 -0.56632,-4.2152 1.18299,-5.4662 0.99904,-0.4762 1.93701,-0.7054 2.94476,-0.785 z m 91.63864,14.8938 c -6.17632,0 -11.26174,5.0854 -11.26174,11.2617 0,6.1765 5.08542,11.2582 11.26174,11.2582 6.17632,0 11.25811,-5.0817 11.25811,-11.2582 0,-6.1763 -5.08179,-11.2617 -11.25811,-11.2617 z m 0,7.0797 c 2.35189,0 4.182,1.8301 4.182,4.182 0,2.3521 -1.83011,4.1821 -4.182,4.1821 -2.3519,0 -4.182,-1.83 -4.182,-4.1821 0,-2.3518 1.8301,-4.182 4.182,-4.182 z m -125.88692,32.3888 c 1.33382,0.088 2.58967,0.8288 3.32463,2.1018 1.10381,1.9119 0.55614,4.21 -1.19745,5.459 -0.87564,0.4254 -1.70883,0.6777 -2.56129,0.8104 -1.39562,-0.03 -2.72441,-0.7597 -3.49104,-2.0871 -0.69864,-1.2102 -0.72846,-2.5778 -0.22428,-3.7408 0.57167,-0.8295 1.23944,-1.5237 2.14889,-2.1488 0.65271,-0.2962 1.33342,-0.4386 2.00054,-0.3945 z m 125.88692,1.2807 c -6.17632,0 -11.26174,5.0817 -11.26174,11.2581 0,6.1764 5.08542,11.2619 11.26174,11.2618 6.17632,0 11.25811,-5.0854 11.25811,-11.2618 0,-6.1764 -5.08179,-11.2581 -11.25811,-11.2581 z m 0,7.0761 c 2.35189,0 4.182,1.8299 4.182,4.182 0,2.3517 -1.83011,4.1857 -4.182,4.1857 -2.3519,0 -4.182,-1.834 -4.182,-4.1857 0,-2.3521 1.8301,-4.182 4.182,-4.182 z m 0,33.6731 c -6.17632,0 -11.26174,5.0817 -11.26174,11.2581 0,6.1763 5.08542,11.2617 11.26174,11.2617 6.17632,0 11.25811,-5.0854 11.25811,-11.2617 0,-6.1764 -5.08179,-11.2581 -11.25811,-11.2581 z m 0,7.0761 c 2.35189,0 4.182,1.8299 4.182,4.182 0,2.3516 -1.83011,4.1856 -4.182,4.1856 -2.3519,0 -4.182,-1.834 -4.182,-4.1856 0,-2.3521 1.8301,-4.182 4.182,-4.182 z m -5.99445,127.0082 c -6.17631,0 -11.25814,5.0818 -11.25811,11.2581 0,6.1764 5.0818,11.2581 11.25811,11.2581 6.17632,0 11.25815,-5.0817 11.25811,-11.2581 0,-6.1763 -5.08179,-11.2581 -11.25811,-11.2581 z m 48.15813,0 c -6.17632,0 -11.25813,5.0818 -11.25811,11.2581 0,6.1764 5.08179,11.2581 11.25811,11.2581 6.17632,0 11.25813,-5.0817 11.25811,-11.2581 0,-6.1763 -5.08179,-11.2581 -11.25811,-11.2581 z m -48.15813,7.0761 c 2.3519,0 4.182,1.83 4.182,4.182 0,2.3521 -1.8301,4.1821 -4.182,4.1821 -2.35189,0 -4.18199,-1.83 -4.18199,-4.1821 0,-2.352 1.8301,-4.182 4.18199,-4.182 z m 48.15813,0 c 2.35189,0 4.182,1.83 4.182,4.182 0,2.3521 -1.83011,4.1821 -4.182,4.1821 -2.35189,0 -4.182,-1.83 -4.182,-4.1821 0,-2.352 1.83011,-4.182 4.182,-4.182 z m -48.15813,33.6731 c -6.17631,0 -11.25814,5.0818 -11.25811,11.2581 0,6.1764 5.0818,11.2581 11.25811,11.2581 6.17632,0 11.25815,-5.0817 11.25811,-11.2581 0,-6.1763 -5.08179,-11.2581 -11.25811,-11.2581 z m 48.15813,0 c -6.17632,0 -11.25813,5.0818 -11.25811,11.2581 0,6.1764 5.08179,11.2581 11.25811,11.2581 6.17632,0 11.25813,-5.0817 11.25811,-11.2581 0,-6.1763 -5.08179,-11.2581 -11.25811,-11.2581 z m -48.15813,7.0761 c 2.3519,0 4.182,1.83 4.182,4.182 0,2.3521 -1.8301,4.182 -4.182,4.182 -2.35189,0 -4.18199,-1.8299 -4.18199,-4.182 0,-2.352 1.8301,-4.182 4.18199,-4.182 z m 48.15813,0 c 2.35189,0 4.182,1.83 4.182,4.182 0,2.3521 -1.83011,4.182 -4.182,4.182 -2.35189,0 -4.182,-1.8299 -4.182,-4.182 0,-2.352 1.83011,-4.182 4.182,-4.182 z M 553.8068,1530.84 c -6.17631,0 -11.25814,5.0817 -11.25811,11.2581 0,6.1763 5.0818,11.258 11.25811,11.258 6.17632,0 11.25815,-5.0817 11.25811,-11.258 0,-6.1764 -5.08179,-11.2581 -11.25811,-11.2581 z m 48.15813,0 c -6.17632,0 -11.25813,5.0817 -11.25811,11.2581 0,6.1763 5.08179,11.258 11.25811,11.258 6.17632,0 11.25813,-5.0817 11.25811,-11.258 0,-6.1764 -5.08179,-11.2581 -11.25811,-11.2581 z m -48.15813,7.0761 c 2.3519,0 4.182,1.8299 4.182,4.182 0,2.3518 -1.8301,4.182 -4.182,4.182 -2.35189,0 -4.18199,-1.83 -4.18199,-4.182 0,-2.3521 1.8301,-4.182 4.18199,-4.182 z m 48.15813,0 c 2.35189,0 4.182,1.8299 4.182,4.182 0,2.3518 -1.83011,4.182 -4.182,4.182 -2.35189,0 -4.182,-1.83 -4.182,-4.182 0,-2.3521 1.83011,-4.182 4.182,-4.182 z"
         id="path1216" />
    </clipPath>
  </defs>
  <metadata
     id="metadata910">
    <rdf:RDF>
      <cc:Work
         rdf:about="">
        <dc:format>image/svg+xml</dc:format>
        <dc:type
           rdf:resource="http://purl.org/dc/dcmitype/StillImage" />
        <dc:title></dc:title>
      </cc:Work>
    </rdf:RDF>
  </metadata>
  <g
     transform="translate(0,-222.51965)"
     id="layer1">
    <g
       clip-path="url(#clipPath1214)"
       id="g1186">
      <g
         transform="matrix(0.20192568,0,0,0.20192568,447.09286,629.39973)"
         id="g1211">
        <path
           id="konamiglow"
           d="M 1.0618088,-633.09864 A 857.87089,857.87089 0 0 0 -856.80938,224.77262 857.87089,857.87089 0 0 0 1.0618088,1082.6438 857.87089,857.87089 0 0 0 858.92744,224.77262 857.87089,857.87089 0 0 0 1.0618088,-633.09864 Z m 0,617.645637 A 240.22491,240.22491 0 0 1 241.28183,224.77262 240.22491,240.22491 0 0 1 1.0618088,464.99824 240.22491,240.22491 0 0 1 -239.16377,224.77262 240.22491,240.22491 0 0 1 1.0618088,-15.453003 Z"
           style="color:#000000;overflow:visible;vector-effect:none;fill:url(#radialGradient1168);fill-opacity:1;stroke-width:100.07459259" />
      </g>
      <rect
         style="color:#000000;overflow:visible;vector-effect:none;fill:none;fill-opacity:1;stroke-width:20"
         id="rect1178"
         width="901.60327"
         height="900.69165"
         x="-1.1906738"
         y="222.46933" />
    </g>
  </g>
</svg>
