<?xml version="1.0" encoding="UTF-8" standalone="no"?>
<svg
   xmlns:dc="http://purl.org/dc/elements/1.1/"
   xmlns:cc="http://creativecommons.org/ns#"
   xmlns:rdf="http://www.w3.org/1999/02/22-rdf-syntax-ns#"
   xmlns:svg="http://www.w3.org/2000/svg"
   xmlns="http://www.w3.org/2000/svg"
   xmlns:sodipodi="http://sodipodi.sourceforge.net/DTD/sodipodi-0.dtd"
   xmlns:inkscape="http://www.inkscape.org/namespaces/inkscape"
   version="1.1"
   id="svg2"
   viewBox="0 0 800 200"
   height="100%"
   width="100%"
   inkscape:version="0.91 r13725"
   sodipodi:docname="_workflow.svg">
  <sodipodi:namedview
     pagecolor="#ffffff"
     bordercolor="#666666"
     borderopacity="1"
     objecttolerance="10"
     gridtolerance="10"
     guidetolerance="10"
     inkscape:pageopacity="0"
     inkscape:pageshadow="2"
     inkscape:window-width="1280"
     inkscape:window-height="1403"
     id="namedview11385"
     showgrid="false"
     inkscape:zoom="1"
     inkscape:cx="389.81519"
     inkscape:cy="-65.597747"
     inkscape:window-x="3840"
     inkscape:window-y="0"
     inkscape:window-maximized="0"
     inkscape:current-layer="layer1" />
  <defs
     id="defs4" />
  <metadata
     id="metadata7">
    <rdf:RDF>
      <cc:Work
         rdf:about="">
        <dc:format>image/svg+xml</dc:format>
        <dc:type
           rdf:resource="http://purl.org/dc/dcmitype/StillImage" />
        <dc:title></dc:title>
      </cc:Work>
    </rdf:RDF>
  </metadata>
  <g
     transform="matrix(0.34055842,0,0,0.34055842,-91.199661,-133.51765)"
     id="layer1">
    <text
       id="text7293"
       y="821.55701"
       x="774.2616"
       style="color:#000000;font-style:normal;font-variant:normal;font-weight:300;font-stretch:normal;font-size:58.72707367px;line-height:125%;font-family:Overpass;-inkscape-font-specification:'Overpass, Light';text-indent:0;text-align:center;text-decoration:none;text-decoration-line:none;letter-spacing:0px;word-spacing:0px;text-transform:none;direction:ltr;block-progression:tb;writing-mode:lr-tb;baseline-shift:baseline;text-anchor:middle;display:inline;overflow:visible;visibility:visible;fill:#ffffff;fill-opacity:1;fill-rule:nonzero;stroke:none;stroke-width:1;stroke-linecap:butt;stroke-linejoin:miter;stroke-opacity:1;marker:none;marker-start:none;marker-mid:none;marker-end:none;enable-background:accumulate"
       xml:space="preserve"
       sodipodi:linespacing="125%"><tspan
         y="821.55701"
         x="774.2616"
         id="tspan7295"
         style="font-style:normal;font-variant:normal;font-weight:300;font-stretch:normal;font-size:58.72707367px;line-height:125%;font-family:Overpass;-inkscape-font-specification:'Overpass, Light';text-align:center;writing-mode:lr-tb;text-anchor:middle;fill:#ffffff">Configure</tspan></text>
    <text
       xml:space="preserve"
       style="color:#000000;font-style:normal;font-variant:normal;font-weight:300;font-stretch:normal;font-size:58.72707367px;line-height:125%;font-family:Overpass;-inkscape-font-specification:'Overpass, Light';text-indent:0;text-align:center;text-decoration:none;text-decoration-line:none;letter-spacing:0px;word-spacing:0px;text-transform:none;direction:ltr;block-progression:tb;writing-mode:lr-tb;baseline-shift:baseline;text-anchor:middle;display:inline;overflow:visible;visibility:visible;fill:#ffffff;fill-opacity:1;fill-rule:nonzero;stroke:none;stroke-width:1;stroke-linecap:butt;stroke-linejoin:miter;stroke-opacity:1;marker:none;marker-start:none;marker-mid:none;marker-end:none;enable-background:accumulate"
       x="1438.2222"
       y="821.55701"
       id="text7297"
       sodipodi:linespacing="125%"><tspan
         id="tspan7299"
         x="1438.2222"
         y="821.55701"
         style="font-style:normal;font-variant:normal;font-weight:300;font-stretch:normal;font-size:58.72707367px;line-height:125%;font-family:Overpass;-inkscape-font-specification:'Overpass, Light';text-align:center;writing-mode:lr-tb;text-anchor:middle;fill:#ffffff">Review</tspan></text>
    <text
       id="text7301"
       y="821.55701"
       x="2107.1101"
       style="color:#000000;font-style:normal;font-variant:normal;font-weight:300;font-stretch:normal;font-size:58.72707367px;line-height:125%;font-family:Overpass;-inkscape-font-specification:'Overpass, Light';text-indent:0;text-align:center;text-decoration:none;text-decoration-line:none;letter-spacing:0px;word-spacing:0px;text-transform:none;direction:ltr;block-progression:tb;writing-mode:lr-tb;baseline-shift:baseline;text-anchor:middle;display:inline;overflow:visible;visibility:visible;fill:#ffffff;fill-opacity:1;fill-rule:nonzero;stroke:none;stroke-width:1;stroke-linecap:butt;stroke-linejoin:miter;stroke-opacity:1;marker:none;marker-start:none;marker-mid:none;marker-end:none;enable-background:accumulate"
       xml:space="preserve"
       sodipodi:linespacing="125%"><tspan
         y="821.55701"
         x="2107.1101"
         id="tspan7303"
         style="font-style:normal;font-variant:normal;font-weight:300;font-stretch:normal;font-size:58.72707367px;line-height:125%;font-family:Overpass;-inkscape-font-specification:'Overpass, Light';text-align:center;writing-mode:lr-tb;text-anchor:middle;fill:#ffffff">Commit</tspan></text>
    <g
       transform="matrix(9.9983743,0,0,9.9709357,294.92015,-6497.0117)"
       id="g4948"
       style="display:inline;fill:#ffffff">
      <path
         style="color:#000000;font-style:normal;font-variant:normal;font-weight:normal;font-stretch:normal;font-size:medium;line-height:normal;font-family:Sans;-inkscape-font-specification:Sans;text-indent:0;text-align:start;text-decoration:none;text-decoration-line:none;letter-spacing:normal;word-spacing:normal;text-transform:none;direction:ltr;block-progression:tb;writing-mode:lr-tb;text-anchor:start;display:inline;overflow:visible;visibility:visible;fill:#ffffff;fill-opacity:1;fill-rule:nonzero;stroke:none;stroke-width:3;marker:none;enable-background:accumulate"
         d="m 43.549718,708.04419 c -0.399396,0 -0.786509,0.0919 -1.143474,0.21635 l 1.885188,1.88519 c 0.387409,0.3874 0.387409,1.00329 0,1.39071 l -0.710808,0.71081 c -0.387409,0.3874 -1.003305,0.3874 -1.390714,0 l -1.885188,-1.88519 c -0.12446,0.35695 -0.216334,0.74407 -0.216334,1.14347 0,1.91164 1.549691,3.46132 3.46133,3.46132 0.399396,0 0.786511,-0.0919 1.143476,-0.21633 l 1.17438,1.17438 a 2.4726259,2.4726259 0 0 1 0.0618,0 l 2.070622,-2.07061 -1.205284,-1.20529 c 0.124458,-0.35695 0.216332,-0.74407 0.216332,-1.14347 0,-1.91164 -1.549689,-3.46134 -3.46133,-3.46134 z m 6.551804,7.91162 -2.070618,2.07061 a 2.4726259,2.4726259 0 0 1 0.03091,0.0927 l 1.143474,1.14347 c -0.124458,0.357 -0.216332,0.74412 -0.216332,1.14352 0,1.91164 1.549689,3.46134 3.46133,3.46134 0.433532,0 0.853742,-0.1017 1.236188,-0.24724 l -2.008806,-2.00881 c -0.387409,-0.38742 -0.387409,-1.0342 0,-1.42162 l 0.679904,-0.6799 c 0.193705,-0.19371 0.458013,-0.30906 0.710808,-0.30906 0.252795,0 0.517105,0.11535 0.71081,0.30906 l 1.946998,1.94699 c 0.104867,-0.33054 0.185428,-0.6855 0.185428,-1.05076 0,-1.91164 -1.549691,-3.46132 -3.46133,-3.46132 -0.399396,0 -0.786511,0.0919 -1.143476,0.21633 l -1.205286,-1.2053 z"
         id="path3908"
         inkscape:connector-curvature="0" />
      <path
         style="color:#000000;font-style:normal;font-variant:normal;font-weight:normal;font-stretch:normal;font-size:medium;line-height:normal;font-family:Sans;-inkscape-font-specification:Sans;text-indent:0;text-align:start;text-decoration:none;text-decoration-line:none;letter-spacing:normal;word-spacing:normal;text-transform:none;direction:ltr;block-progression:tb;writing-mode:lr-tb;text-anchor:start;display:inline;overflow:visible;visibility:visible;fill:#ffffff;fill-opacity:1;fill-rule:nonzero;stroke:none;stroke-width:3;marker:none;enable-background:accumulate"
         d="m 53.860505,707.95337 -1.542705,1.44172 c -0.451586,0.42201 -0.529293,1.15218 -0.266343,1.71144 l -5.889182,6.01323 a 1.4919155,1.4919127 0 0 0 -0.03108,2.5e-4 1.4919155,1.4919127 0 0 0 -0.840306,-0.14884 1.4919155,1.4919127 0 0 0 -0.866771,0.44188 l -3.94684,4.00899 a 1.4943601,1.4943574 0 1 0 2.129781,2.09677 l 3.946839,-4.00899 a 1.4919155,1.4919127 0 0 0 0.297178,-1.74277 l 5.889423,-5.98216 c 0.557911,0.2491 1.273451,0.1474 1.707079,-0.29305 l 1.417423,-1.56504 -2.004499,-1.97343 z"
         id="path3910"
         inkscape:connector-curvature="0" />
    </g>
    <path
       style="color:#000000;font-style:normal;font-variant:normal;font-weight:normal;font-stretch:normal;font-size:medium;line-height:normal;font-family:sans-serif;text-indent:0;text-align:start;text-decoration:none;text-decoration-line:none;text-decoration-style:solid;text-decoration-color:#000000;letter-spacing:normal;word-spacing:normal;text-transform:none;direction:ltr;block-progression:tb;writing-mode:lr-tb;baseline-shift:baseline;text-anchor:start;white-space:normal;clip-rule:nonzero;display:inline;overflow:visible;visibility:visible;opacity:1;isolation:auto;mix-blend-mode:normal;color-interpolation:sRGB;color-interpolation-filters:linearRGB;solid-color:#000000;solid-opacity:1;fill:#ffffff;fill-opacity:1;fill-rule:nonzero;stroke:none;stroke-width:0.99115032;stroke-linecap:round;stroke-linejoin:miter;stroke-miterlimit:4;stroke-dasharray:none;stroke-dashoffset:0;stroke-opacity:1;marker:none;color-rendering:auto;image-rendering:auto;shape-rendering:auto;text-rendering:auto;enable-background:accumulate"
       d="m 1396.7824,571.94687 c -13.6418,0 -24.7812,11.14515 -24.7812,24.78695 l 0,90.42479 c 0,13.6418 11.1394,24.78695 24.7812,24.78695 l 90.4305,0 c 13.6418,0 24.7869,-11.14515 24.7869,-24.78695 l 0,-90.42479 c 0,-13.6418 -11.1451,-24.78695 -24.7869,-24.78695 l -90.4305,0 z m 0,9.92166 90.4305,0 c 6.8257,0 12.4035,4.43004 14.2115,10.60414 l -54.4258,53.22141 -19.3731,-19.37305 -21.2484,21.24842 30.0001,30.00013 10.6214,10.62707 10.6271,-10.62707 44.4697,-45.66833 0,55.25736 c 0,8.3222 -6.5603,14.88249 -14.8825,14.88249 l -90.4305,0 c -8.3222,0 -14.8596,-6.56029 -14.8596,-14.88249 l 0,-90.42479 c 0,-8.3222 6.5374,-14.86529 14.8596,-14.86529 z"
       id="rect9618-8"
       inkscape:connector-curvature="0" />
    <path
       id="path3613"
       style="color:#000000;font-style:normal;font-variant:normal;font-weight:normal;font-stretch:normal;font-size:medium;line-height:normal;font-family:'Bitstream Vera Sans';-inkscape-font-specification:'Bitstream Vera Sans';text-indent:0;text-align:start;text-decoration:none;text-decoration-line:none;letter-spacing:normal;word-spacing:normal;text-transform:none;direction:ltr;block-progression:tb;writing-mode:lr-tb;text-anchor:start;display:inline;overflow:visible;visibility:visible;fill:#ffffff;fill-opacity:1;stroke:none;stroke-width:2;marker:none;enable-background:accumulate"
       d="m 2099.1429,571.94578 0,55.625 -12.8125,-12.8125 c -1.8816,-1.8815 -4.5345,-2.8124 -7.1875,-2.8125 l -10,0 0,10 c 1e-4,2.653 0.931,5.3058 2.8125,7.1875 l 30,30 2.8125,2.8125 8.75,0 2.8125,-2.8125 30,-30 c 1.8819,-1.8817 2.8124,-4.5345 2.8125,-7.1875 l 0,-10 -10,0 c -2.653,10e-5 -5.3059,0.931 -7.1875,2.8125 l -12.8125,12.8125 0,-55.625 z m -25.0951,79.94217 a 5.0005001,5.0005001 0 0 0 -4.0662,2.28256 l -9.9962,15.00293 a 5.0005001,5.0005001 0 0 0 -0.8431,3.44104 l 0,39.33109 100.0024,0 0,-39.34256 a 5.0005001,5.0005001 0 0 0 -0.8431,-3.42957 l -9.9962,-15.00293 a 5.0005001,5.0005001 0 0 0 -4.221,-2.28256 5.0005001,5.0005001 0 0 0 -4.1006,7.82837 l 8.1495,12.22716 -77.9796,0 8.1495,-12.22716 a 5.0005001,5.0005001 0 0 0 -4.2554,-7.82837 z m 50.0958,34.35879 c 2.6418,0 5.0383,2.43393 5.001,5.07553 l 0,0.62512 c 0,5.4535 -4.5485,9.99622 -10.002,9.99622 l -19.9982,0 c -5.4535,0 -10.0019,-4.54272 -10.0019,-9.99622 l 0,-0.62512 c -0.108,-2.1706 1.3701,-4.32438 3.4353,-5.00098 0.208,-0.01 0.4171,-0.01 0.6251,0 2.9096,-0.556 5.9938,2.03928 5.9415,5.00098 l 0,0.62512 19.9982,0 0,-0.62512 c -0.04,-2.6416 2.3592,-5.07553 5.001,-5.07553 z"
       inkscape:connector-curvature="0" />
    <path
       style="color:#000000;clip-rule:nonzero;display:inline;overflow:visible;visibility:visible;opacity:1;isolation:auto;mix-blend-mode:normal;color-interpolation:sRGB;color-interpolation-filters:linearRGB;solid-color:#000000;solid-opacity:1;fill:#ffffff;fill-opacity:1;fill-rule:nonzero;stroke:none;stroke-width:0.99999994;stroke-linecap:butt;stroke-linejoin:miter;stroke-miterlimit:4;stroke-dasharray:none;stroke-dashoffset:0;stroke-opacity:1;marker:none;marker-start:none;marker-mid:none;marker-end:none;paint-order:normal;color-rendering:auto;image-rendering:auto;shape-rendering:auto;text-rendering:auto;enable-background:accumulate"
       d="m 1124.5356,613.34321 33.0732,33.0735 -33.0733,33.07353 z"
       id="rect11942"
       inkscape:connector-curvature="0"
       sodipodi:nodetypes="cccc" />
    <path
       sodipodi:nodetypes="cccc"
       inkscape:connector-curvature="0"
       id="path14067"
       d="m 1770.5337,613.34321 33.0732,33.0735 -33.0733,33.07353 z"
       style="color:#000000;clip-rule:nonzero;display:inline;overflow:visible;visibility:visible;opacity:1;isolation:auto;mix-blend-mode:normal;color-interpolation:sRGB;color-interpolation-filters:linearRGB;solid-color:#000000;solid-opacity:1;fill:#ffffff;fill-opacity:1;fill-rule:nonzero;stroke:none;stroke-width:0.99999994;stroke-linecap:butt;stroke-linejoin:miter;stroke-miterlimit:4;stroke-dasharray:none;stroke-dashoffset:0;stroke-opacity:1;marker:none;marker-start:none;marker-mid:none;marker-end:none;paint-order:normal;color-rendering:auto;image-rendering:auto;shape-rendering:auto;text-rendering:auto;enable-background:accumulate" />
  </g>
</svg>
